<svg width="140" height="38" viewBox="0 0 140 38" fill="none" xmlns="http://www.w3.org/2000/svg">
<path d="M11.2312 22.737V27.823C11.2312 30.366 10.1272 31.283 8.37266 31.283C6.61809 31.283 5.51507 30.366 5.51507 27.823V8.596C5.51507 6.053 6.61907 5.086 8.37364 5.086C10.1282 5.086 11.2312 6.053 11.2312 8.596V12.411H16.4457V8.952C16.4457 3.255 13.6374 0 8.22283 0C2.80731 0 0 3.255 0 8.952V27.467C0 33.164 2.80731 36.42 8.22283 36.42C13.6374 36.42 16.4457 33.164 16.4457 27.467V22.737H11.2312ZM32.0387 0.407L37.6543 36.013H32.0889L31.1358 29.553H24.3678L23.4147 36.013H18.351L23.9667 0.407H32.0387ZM27.6769 6.714L25.0697 24.721H30.3837L27.7774 6.713H27.6779L27.6769 6.714ZM57.3587 36.013H51.7431C51.4425 35.097 51.2414 34.537 51.2414 31.638V26.043C51.2414 22.737 50.1384 21.516 47.6317 21.516H45.7263V36.013H40.2112V0.407H48.5346C54.2498 0.407 56.7062 3.103 56.7062 8.597V11.394C56.7062 15.056 55.5529 17.396 53.0965 18.566C55.8545 19.837 56.7564 22.482 56.7564 26.196V31.689C56.7564 33.419 56.8077 34.69 57.3587 36.013ZM48.3838 5.493H45.7263V16.43H47.8821C49.9383 16.43 51.1911 15.515 51.1911 12.666V9.156C51.1911 6.613 50.3394 5.493 48.3838 5.493ZM74.1671 0.407L79.7827 36.013H74.2174L73.2652 29.553H66.4963L65.5441 36.013H60.4795L66.0951 0.407H74.1671ZM69.8053 6.714L67.1981 24.721H72.5131L69.9059 6.713H69.8053V6.714ZM84.8848 0.407H79.3194L84.734 36.013H92.9568L98.3713 0.407H93.3077L89.146 29.45H89.0455L84.8848 0.407ZM111.596 0.407L117.211 36.013H111.646L110.694 29.553H103.925L102.972 36.013H97.908L103.524 0.407H111.596ZM107.234 6.714L104.627 24.721H109.942L107.334 6.713H107.234V6.714ZM132.334 36.013H138V0.407H133.086V21.719H132.986L127.42 0.407H120.502V36.013H125.466V10.223H125.565L132.334 36.013Z" fill="#9C9C9C"/>
</svg>
