<svg width="150" height="39" viewBox="0 0 150 39" fill="none" xmlns="http://www.w3.org/2000/svg">
<path fill-rule="evenodd" clip-rule="evenodd" d="M22.7211 16.8501H25.4024C28.1735 16.8501 29.6705 20.1421 27.8656 22.2751L25.2406 25.3751C25.5248 27.2137 26.483 28.876 27.9238 30.0301C29.3659 31.1848 31.1843 31.7468 33.0169 31.6041C34.8495 31.4614 36.5618 30.6245 37.8129 29.2601C39.063 27.8962 39.7591 26.1045 39.7619 24.2431C39.7617 23.9193 39.8245 23.5986 39.9467 23.2994C40.0689 23.0002 40.2482 22.7284 40.4743 22.4995C40.7003 22.2706 40.9687 22.0892 41.2641 21.9655C41.5594 21.8419 41.8759 21.7786 42.1955 21.7791C42.8406 21.7794 43.4592 22.0389 43.9156 22.5009C44.3721 22.9628 44.629 23.5894 44.63 24.2431C44.6298 26.829 43.826 29.3492 42.3327 31.4461C41.2145 33.0129 39.749 34.2917 38.0539 35.1796C36.3589 36.0674 34.4818 36.5395 32.5737 36.5578C30.6657 36.5761 28.7801 36.1401 27.0688 35.2849C25.3575 34.4297 23.8683 33.1792 22.7211 31.6341C21.574 33.1792 20.0848 34.4297 18.3735 35.2849C16.6621 36.1401 14.7766 36.5761 12.8685 36.5578C10.9605 36.5395 9.08343 36.0674 7.38839 35.1796C5.69335 34.2917 4.22776 33.0129 3.10964 31.4461C1.6159 29.3493 0.811748 26.8291 0.81128 24.2431C0.81102 23.9192 0.873835 23.5984 0.996126 23.2992C1.11842 22.9999 1.29778 22.728 1.52394 22.4991C1.7501 22.2702 2.01861 22.0888 2.31408 21.9653C2.60955 21.8417 2.92618 21.7784 3.24582 21.7791C3.89091 21.7794 4.50954 22.0389 4.96596 22.5009C5.42239 22.9628 5.67931 23.5894 5.68036 24.2431C5.67763 26.1075 6.37068 27.9039 7.62049 29.2721C8.55368 30.2935 9.75211 31.0276 11.0783 31.3903C12.4045 31.753 13.8047 31.7295 15.1183 31.3226C16.4319 30.9156 17.6056 30.1417 18.505 29.0895C19.4043 28.0374 19.9927 26.7497 20.2027 25.3741L17.5758 22.2741C15.7718 20.1421 17.2679 16.8511 20.0429 16.8511L22.7211 16.8501Z" fill="#9C9C9C"/>
<path d="M34.0806 10.2801C34.7197 10.2806 35.3526 10.1535 35.9432 9.90614C36.5338 9.65874 37.0705 9.29587 37.5226 8.83823C37.9748 8.3806 38.3335 7.83718 38.5784 7.23901C38.8233 6.64085 38.9494 5.99966 38.9497 5.35207C38.9494 4.70449 38.8233 4.0633 38.5784 3.46513C38.3335 2.86697 37.9748 2.32355 37.5226 1.86592C37.0705 1.40828 36.5338 1.0454 35.9432 0.798008C35.3526 0.550613 34.7197 0.423548 34.0806 0.424074C33.4416 0.42368 32.8088 0.550841 32.2183 0.798295C31.6279 1.04575 31.0913 1.40865 30.6392 1.86627C30.1872 2.32389 29.8285 2.86727 29.5837 3.46537C29.3389 4.06347 29.2128 4.70457 29.2125 5.35207C29.2128 5.99958 29.3389 6.64068 29.5837 7.23878C29.8285 7.83688 30.1872 8.38026 30.6392 8.83788C31.0913 9.2955 31.6279 9.6584 32.2183 9.90585C32.8088 10.1533 33.4416 10.2805 34.0806 10.2801ZM11.3605 10.2801C11.9995 10.2805 12.6323 10.1533 13.2228 9.90585C13.8133 9.6584 14.3499 9.2955 14.8019 8.83788C15.254 8.38026 15.6126 7.83688 15.8574 7.23878C16.1022 6.64068 16.2284 5.99958 16.2286 5.35207C16.2284 4.70457 16.1022 4.06347 15.8574 3.46537C15.6126 2.86727 15.254 2.32389 14.8019 1.86627C14.3499 1.40865 13.8133 1.04575 13.2228 0.798295C12.6323 0.550841 11.9995 0.42368 11.3605 0.424074C10.7215 0.423548 10.0886 0.550613 9.49797 0.798008C8.90738 1.0454 8.37067 1.40828 7.91851 1.86592C7.46635 2.32355 7.10759 2.86697 6.86273 3.46513C6.61788 4.0633 6.49171 4.70449 6.49146 5.35207C6.49171 5.99966 6.61788 6.64085 6.86273 7.23901C7.10759 7.83718 7.46635 8.3806 7.91851 8.83823C8.37067 9.29587 8.90738 9.65874 9.49797 9.90614C10.0886 10.1535 10.7215 10.2806 11.3605 10.2801ZM78.3997 1.62807C79.1497 1.62807 79.7655 1.84507 80.247 2.27907C80.7286 2.71307 80.9694 3.28307 80.9694 3.98907V28.3241C80.9694 29.0571 80.7424 29.6401 80.2865 30.0741C79.8326 30.5081 79.2296 30.7251 78.4806 30.7251C77.7306 30.7251 77.1286 30.5081 76.6727 30.0751C76.2178 29.6401 75.9898 29.0571 75.9898 28.3251V27.3071C75.4007 28.4191 74.5441 29.2871 73.4191 29.9111C72.3217 30.5351 71.0635 30.8471 69.6444 30.8471C67.9569 30.8471 66.4451 30.4131 65.1069 29.5451C63.7944 28.6771 62.7642 27.4561 62.0142 25.8821C61.2908 24.2821 60.9296 22.4511 60.9296 20.3891C60.9296 18.3271 61.2908 16.5231 62.0142 14.9761C62.7642 13.4301 63.7944 12.2361 65.1069 11.3951C66.4184 10.5541 67.9313 10.1331 69.6444 10.1331C71.0635 10.1331 72.3217 10.4321 73.4201 11.0291C74.4903 11.5989 75.3703 12.4767 75.9493 13.5521V3.90707C75.9493 3.22907 76.1635 2.68607 76.5918 2.27907C77.0477 1.84507 77.6497 1.62807 78.3997 1.62807ZM70.9697 26.9001C72.5763 26.9001 73.8079 26.3441 74.6645 25.2311C75.5477 24.1191 75.9898 22.5311 75.9898 20.4701C75.9898 18.4081 75.5477 16.8341 74.6645 15.7501C73.8079 14.6371 72.5901 14.0801 71.0102 14.0801C69.4036 14.0801 68.1582 14.6231 67.275 15.7091C66.3918 16.7941 65.9497 18.3541 65.9497 20.3891C65.9497 22.4511 66.3918 24.0511 67.275 25.1911C68.1582 26.3311 69.3898 26.9001 70.9697 26.9001ZM95.0892 30.8471C93.0819 30.8471 91.3145 30.4271 89.7888 29.5861C88.2888 28.7451 87.1244 27.5381 86.2944 25.9641C85.4645 24.3901 85.049 22.5591 85.049 20.4701C85.049 18.3811 85.4635 16.5631 86.2944 15.0171C87.1244 13.4431 88.2888 12.2361 89.7878 11.3951C91.3145 10.5541 93.0819 10.1331 95.0892 10.1331C97.0974 10.1331 98.851 10.5531 100.35 11.3951C101.853 12.2117 103.073 13.4759 103.844 15.0171C104.674 16.5631 105.09 18.3811 105.09 20.4701C105.09 22.5601 104.674 24.3901 103.844 25.9641C103.073 27.5052 101.853 28.7694 100.35 29.5861C98.851 30.4261 97.0964 30.8471 95.0892 30.8471ZM95.0497 26.9001C96.6829 26.9001 97.9273 26.3571 98.7839 25.2721C99.6415 24.1871 100.07 22.5861 100.07 20.4701C100.07 18.3811 99.6415 16.7941 98.7839 15.7091C97.9273 14.5961 96.6957 14.0401 95.0892 14.0401C93.4836 14.0401 92.2372 14.5961 91.3549 15.7091C90.4984 16.7941 90.0691 18.3811 90.0691 20.4701C90.0691 22.5861 90.4974 24.1871 91.3549 25.2721C92.2115 26.3571 93.4431 26.9001 95.0497 26.9001ZM125.86 10.2151C126.61 10.2151 127.212 10.4321 127.667 10.8651C128.123 11.3001 128.35 11.8831 128.35 12.6151V28.6901C128.35 31.8101 127.493 34.1701 125.78 35.7721C124.066 37.3721 121.537 38.1721 118.189 38.1721C115.271 38.1721 112.835 37.6171 110.881 36.5041C109.89 35.9071 109.394 35.1881 109.394 34.3471C109.394 33.7501 109.529 33.2761 109.796 32.9231C110.09 32.5701 110.465 32.3931 110.92 32.3931C111.162 32.3931 111.456 32.4481 111.804 32.5571C112.152 32.6921 112.514 32.8421 112.888 33.0041C113.726 33.3656 114.585 33.6781 115.459 33.9401C116.235 34.1571 117.118 34.2661 118.109 34.2661C121.616 34.2661 123.37 32.5301 123.37 29.0561V26.4521C122.781 27.5651 121.924 28.4321 120.8 29.0571C119.675 29.6541 118.39 29.9521 116.945 29.9521C115.231 29.9521 113.705 29.5451 112.366 28.7321C111.054 27.8901 110.024 26.7241 109.274 25.2321C108.524 23.7391 108.149 22.0171 108.149 20.0631C108.149 18.1101 108.511 16.3871 109.234 14.8951C109.984 13.3751 111.028 12.2091 112.366 11.3951C113.705 10.5541 115.231 10.1331 116.945 10.1331C118.39 10.1331 119.675 10.4451 120.8 11.0691C121.896 11.6373 122.792 12.5322 123.37 13.6331V12.5751C123.37 11.8701 123.598 11.3001 124.053 10.8651C124.508 10.4321 125.111 10.2151 125.86 10.2151ZM118.27 26.0051C119.877 26.0051 121.121 25.4751 122.004 24.4181C122.915 23.3591 123.37 21.9081 123.37 20.0631C123.37 18.1911 122.915 16.7261 122.004 15.6681C121.121 14.6101 119.877 14.0811 118.27 14.0811C116.69 14.0811 115.445 14.6101 114.535 15.6681C113.625 16.7261 113.169 18.1911 113.169 20.0631C113.169 21.9081 113.625 23.3591 114.535 24.4181C115.445 25.4761 116.69 26.0051 118.27 26.0051ZM140.658 30.8471C137.739 30.8471 135.384 30.2641 133.59 29.0971C132.733 28.5821 132.305 27.8491 132.305 26.9001C132.305 26.3571 132.452 25.9231 132.746 25.5981C133.041 25.2451 133.402 25.0681 133.831 25.0681C134.286 25.0681 134.915 25.2861 135.718 25.7201C136.575 26.1271 137.352 26.4391 138.047 26.6561C138.771 26.8731 139.681 26.9811 140.778 26.9811C141.903 26.9811 142.773 26.7911 143.389 26.4111C144.032 26.0311 144.352 25.5031 144.352 24.8241C144.352 24.3641 144.219 23.9971 143.951 23.7261C143.71 23.4541 143.255 23.2101 142.586 22.9931C141.942 22.7491 140.953 22.4781 139.614 22.1791C137.231 21.6911 135.517 20.9991 134.473 20.1041C133.456 19.2091 132.947 17.9741 132.947 16.4011C132.947 15.2071 133.295 14.1351 133.991 13.1851C134.687 12.2091 135.638 11.4631 136.842 10.9471C138.074 10.4051 139.466 10.1331 141.019 10.1331C142.144 10.1331 143.228 10.2831 144.272 10.5811C145.268 10.8313 146.218 11.2433 147.084 11.8011C147.94 12.3441 148.369 13.0631 148.369 13.9591C148.369 14.5011 148.222 14.9631 147.927 15.3421C147.633 15.6951 147.27 15.8721 146.842 15.8721C146.548 15.8721 146.253 15.8171 145.959 15.7091C145.607 15.5273 145.258 15.3372 144.915 15.1391C144.138 14.7321 143.469 14.4341 142.907 14.2441C142.344 14.0271 141.648 13.9181 140.818 13.9181C139.828 13.9181 139.038 14.1221 138.449 14.5281C137.887 14.9351 137.605 15.4921 137.605 16.1971C137.605 16.8751 137.9 17.3911 138.489 17.7431C139.079 18.0961 140.216 18.4491 141.903 18.8021C143.697 19.1821 145.102 19.6151 146.12 20.1041C147.137 20.5921 147.86 21.2031 148.288 21.9351C148.744 22.6681 148.971 23.6041 148.971 24.7431C148.971 26.5881 148.208 28.0671 146.682 29.1791C145.182 30.2911 143.174 30.8471 140.658 30.8471Z" fill="#9C9C9C"/>
</svg>
