<svg width="162" height="38" viewBox="0 0 162 38" fill="none" xmlns="http://www.w3.org/2000/svg">
<g clip-path="url(#clip0_6_30)">
<path d="M2.65522 30.072C1.85312 30.072 1.20315 29.82 0.705293 29.316C0.235098 28.812 0 28.154 0 27.342V2.772C0 1.96 0.221268 1.33 0.663805 0.882C1.134 0.434 1.77015 0.21 2.57224 0.21H17.1345C18.8216 0.21 19.6652 0.938 19.6652 2.394C19.6652 3.822 18.8216 4.536 17.1345 4.536H5.26895V12.6H16.3047C17.9919 12.6 18.8355 13.328 18.8355 14.784C18.8355 16.212 17.9919 16.926 16.3047 16.926H5.26895V27.342C5.26895 28.154 5.03385 28.812 4.56366 29.316C4.09346 29.82 3.45732 30.072 2.65522 30.072ZM27.2763 30.072C26.5295 30.072 25.9072 29.862 25.4093 29.442C24.9391 28.994 24.704 28.364 24.704 27.552V2.478C24.704 1.666 24.9391 1.05 25.4093 0.63C25.9072 0.21 26.5295 0 27.2763 0C28.023 0 28.6454 0.21 29.1432 0.63C29.6411 1.05 29.89 1.666 29.89 2.478V27.552C29.89 28.364 29.6411 28.994 29.1432 29.442C28.6454 29.862 28.023 30.072 27.2763 30.072ZM51.2937 24.192C51.7639 24.192 52.1373 24.374 52.4139 24.738C52.7182 25.102 52.8703 25.592 52.8703 26.208C52.8703 27.076 52.3586 27.804 51.3352 28.392C50.3948 28.924 49.33 29.358 48.1407 29.694C46.9514 30.002 45.8174 30.156 44.7387 30.156C41.475 30.156 38.8889 29.204 36.9805 27.3C35.072 25.396 34.1178 22.792 34.1178 19.488C34.1178 17.388 34.5327 15.526 35.3624 13.902C36.1922 12.278 37.3538 11.018 38.8474 10.122C40.3686 9.226 42.0835 8.778 43.9919 8.778C45.8174 8.778 47.4077 9.184 48.763 9.996C50.1183 10.808 51.1693 11.956 51.9161 13.44C52.6628 14.924 53.0362 16.674 53.0362 18.69C53.0362 19.894 52.5107 20.496 51.4597 20.496H39.2208C39.3867 22.428 39.9261 23.856 40.8388 24.78C41.7515 25.676 43.0792 26.124 44.8217 26.124C45.7067 26.124 46.4812 26.012 47.145 25.788C47.8364 25.564 48.6109 25.256 49.4683 24.864C50.298 24.416 50.9065 24.192 51.2937 24.192ZM44.1154 12.474C42.7048 12.474 41.5708 12.922 40.7134 13.818C39.8836 14.714 39.3858 16.002 39.2198 17.682H48.5961C48.5407 15.974 48.1259 14.686 47.3514 13.818C46.577 12.922 45.4983 12.474 44.1154 12.474ZM74.4637 25.956C74.9616 26.46 75.2105 27.034 75.2105 27.678C75.2105 28.294 74.9754 28.854 74.5052 29.358C74.035 29.834 73.4818 30.072 72.8457 30.072C72.1542 30.072 71.5596 29.778 71.0617 29.19L65.2119 22.638L59.3621 29.19C58.8366 29.75 58.242 30.03 57.5782 30.03C56.9697 30.03 56.4303 29.792 55.9601 29.316C55.4899 28.84 55.2548 28.294 55.2548 27.678C55.2548 27.034 55.5038 26.46 56.0016 25.956L62.0588 19.278L56.3335 12.978C55.8357 12.474 55.5867 11.9 55.5867 11.256C55.5867 10.612 55.8218 10.066 56.292 9.618C56.7622 9.142 57.3016 8.904 57.9101 8.904C58.5739 8.904 59.1685 9.184 59.694 9.744L65.2119 15.876L70.7298 9.744C71.2553 9.184 71.85 8.904 72.5138 8.904C73.1499 8.904 73.6893 9.142 74.1318 9.618C74.602 10.066 74.8371 10.612 74.8371 11.256C74.8371 11.9 74.5882 12.474 74.0903 12.978L68.365 19.278L74.4637 25.956ZM97.4163 14.532C99.1035 15.008 100.403 15.876 101.316 17.136C102.257 18.396 102.727 19.936 102.727 21.756C102.727 24.276 101.828 26.25 100.03 27.678C98.2599 29.106 95.8121 29.82 92.6867 29.82H81.9829C81.1808 29.82 80.5446 29.596 80.0744 29.148C79.6319 28.7 79.4106 28.07 79.4106 27.258V2.772C79.4106 1.96 79.6319 1.33 80.0744 0.882C80.5446 0.434 81.1808 0.21 81.9829 0.21H92.2709C95.3133 0.21 97.6919 0.896 99.4068 2.268C101.149 3.612 102.02 5.502 102.02 7.938C102.02 9.506 101.606 10.864 100.776 12.012C99.9738 13.16 98.8536 14 97.4153 14.532H97.4163ZM84.6381 12.684H91.4006C95.0792 12.684 96.9185 11.298 96.9185 8.526C96.9185 7.126 96.4621 6.09 95.5494 5.418C94.6367 4.746 93.2537 4.41 91.4006 4.41H84.6381V12.684ZM92.1059 25.62C94.042 25.62 95.4526 25.27 96.3377 24.57C97.2227 23.87 97.6653 22.778 97.6653 21.294C97.6653 19.81 97.2089 18.704 96.2962 17.976C95.4111 17.248 94.0143 16.884 92.1059 16.884H84.6381V25.62H92.1059ZM109.847 30.072C109.1 30.072 108.478 29.862 107.98 29.442C107.51 28.994 107.275 28.364 107.275 27.552V2.478C107.275 1.666 107.51 1.05 107.98 0.63C108.478 0.21 109.1 0 109.847 0C110.594 0 111.216 0.21 111.714 0.63C112.212 1.05 112.461 1.666 112.461 2.478V27.552C112.461 28.364 112.212 28.994 111.714 29.442C111.216 29.862 110.594 30.072 109.847 30.072ZM127.06 30.156C124.986 30.156 123.161 29.722 121.584 28.854C120.035 27.986 118.832 26.74 117.975 25.116C117.117 23.492 116.688 21.602 116.688 19.446C116.688 17.29 117.117 15.414 117.975 13.818C118.832 12.194 120.035 10.948 121.584 10.08C123.161 9.212 124.986 8.778 127.06 8.778C129.135 8.778 130.946 9.212 132.495 10.08C134.048 10.923 135.307 12.2277 136.105 13.818C136.962 15.414 137.391 17.29 137.391 19.446C137.391 21.602 136.962 23.492 136.105 25.116C135.307 26.7063 134.048 28.011 132.495 28.854C130.946 29.722 129.135 30.156 127.06 30.156ZM127.019 26.082C128.706 26.082 129.992 25.522 130.877 24.402C131.762 23.282 132.205 21.63 132.205 19.446C132.205 17.29 131.762 15.652 130.877 14.532C129.992 13.384 128.72 12.81 127.06 12.81C125.401 12.81 124.115 13.384 123.202 14.532C122.317 15.652 121.874 17.29 121.874 19.446C121.874 21.63 122.317 23.282 123.202 24.402C124.087 25.522 125.359 26.082 127.019 26.082ZM158.848 8.862C159.622 8.862 160.245 9.086 160.715 9.534C161.185 9.982 161.42 10.584 161.42 11.34V27.93C161.42 31.15 160.535 33.586 158.765 35.238C156.995 36.89 154.381 37.716 150.924 37.716C147.909 37.716 145.392 37.142 143.373 35.994C142.35 35.378 141.838 34.636 141.838 33.768C141.838 33.152 141.976 32.662 142.253 32.298C142.557 31.934 142.944 31.752 143.414 31.752C143.663 31.752 143.968 31.808 144.327 31.92C144.687 32.06 145.06 32.214 145.447 32.382C146.443 32.802 147.328 33.124 148.103 33.348C148.905 33.572 149.817 33.684 150.841 33.684C154.464 33.684 156.276 31.892 156.276 28.308V25.62C155.667 26.768 154.782 27.664 153.62 28.308C152.459 28.924 151.131 29.232 149.638 29.232C147.867 29.232 146.291 28.812 144.908 27.972C143.553 27.104 142.488 25.9 141.713 24.36C140.939 22.82 140.552 21.042 140.552 19.026C140.552 17.01 140.925 15.232 141.672 13.692C142.446 12.124 143.525 10.92 144.908 10.08C146.291 9.212 147.867 8.778 149.638 8.778C151.131 8.778 152.459 9.1 153.62 9.744C154.752 10.3302 155.679 11.2537 156.276 12.39V11.298C156.276 10.57 156.511 9.982 156.981 9.534C157.451 9.086 158.073 8.862 158.848 8.862ZM151.007 25.158C152.666 25.158 153.952 24.612 154.865 23.52C155.805 22.428 156.276 20.93 156.276 19.026C156.276 17.094 155.805 15.582 154.865 14.49C153.952 13.398 152.666 12.852 151.007 12.852C149.375 12.852 148.089 13.398 147.148 14.49C146.208 15.582 145.738 17.094 145.738 19.026C145.738 20.93 146.208 22.428 147.148 23.52C148.089 24.612 149.375 25.158 151.007 25.158Z" fill="#9C9C9C"/>
</g>
<defs>
<clipPath id="clip0_6_30">
<rect width="162" height="38" fill="white"/>
</clipPath>
</defs>
</svg>
