<svg width="137" height="50" viewBox="0 0 137 50" fill="none" xmlns="http://www.w3.org/2000/svg">
<g clip-path="url(#clip0_6_32)">
<path d="M24.5536 10.784L20.0178 39.082H13.5009L15.1567 28.864H8.13721L6.51489 39.082H0L4.57225 10.784H11.0526L9.10902 22.732H16.1285L18.0741 10.784H24.5536ZM37.9194 39.082L38.1363 32.912H32.124L30.3598 39.082H23.4832L32.7361 10.784H44.6157L44.7606 39.082H37.9194ZM36.444 17.662L33.6005 27.645H38.3166L38.7119 17.663L36.444 17.662ZM72.7214 10.784L68.1846 39.082H61.6677L57.1329 23.598L54.6847 39.083H48.1668L52.7391 10.784H59.4353L63.9002 25.248L66.239 10.784H72.7214ZM87.9244 10.784C91.0685 10.784 93.3128 11.649 94.6562 13.378C95.6408 14.688 96.1316 16.326 96.1316 18.291C96.1316 18.999 96.0725 19.745 95.9532 20.531L94.5487 29.296C94.0687 32.256 92.8919 34.628 91.0202 36.41C89.1476 38.192 86.724 39.082 83.7464 39.082H73.2704L77.8436 10.784H87.9244ZM85.6555 16.916H83.3157L80.76 32.95H84.1801C85.3076 32.95 86.1838 32.622 86.8077 31.968C87.4563 31.286 87.8998 30.186 88.1383 28.667L89.184 22.221C89.2747 21.701 89.323 21.175 89.3279 20.648C89.3279 18.158 88.1048 16.916 85.6555 16.916ZM115.427 39.082H97.3538L101.928 10.784H120.001L118.993 16.916H107.4L106.572 22.222H116.148L115.141 28.352H105.564L104.844 32.951H116.437L115.427 39.082ZM135.992 39.082H119.574L124.148 10.784H130.628L127.064 32.951H137L135.992 39.082ZM72.4139 44.118H135.043L133.086 50H70.4574L72.4139 44.118ZM6.85 0H75.35L73.3926 5.882H4.89258L6.85 0Z" fill="#9C9C9C"/>
</g>
<defs>
<clipPath id="clip0_6_32">
<rect width="137" height="50" fill="white"/>
</clipPath>
</defs>
</svg>
