<svg width="206" height="41" viewBox="0 0 206 41" fill="none" xmlns="http://www.w3.org/2000/svg">
<g clip-path="url(#clip0_6_34)">
<mask id="mask0_6_34" style="mask-type:luminance" maskUnits="userSpaceOnUse" x="0" y="0" width="206" height="41">
<path d="M0 0H206V41H0V0Z" fill="white"/>
</mask>
<g mask="url(#mask0_6_34)">
<path fill-rule="evenodd" clip-rule="evenodd" d="M13.801 36.1229C13.6694 36.1217 13.5398 36.09 13.4222 36.0304C13.3046 35.9708 13.2021 35.8847 13.1226 35.7789C12.8966 35.4756 12.744 35.1233 12.6769 34.7499C12.5695 34.2746 12.4869 33.7939 12.4293 33.3099C12.3609 32.6866 12.3258 32.06 12.3243 31.4329C12.304 30.0549 12.3086 28.6767 12.3382 27.2989C12.356 26.4529 12.3639 25.7929 12.3639 25.3169V9.56489C12.3639 8.78889 12.3689 8.19889 12.3778 7.79389C12.3867 7.38889 12.4174 6.93089 12.4679 6.41989C12.4977 6.03989 12.563 5.66389 12.665 5.29689C12.7641 5.01389 12.8958 4.74389 13.0562 4.49089C13.2048 4.22589 13.4207 4.00689 13.6831 3.85689C13.9882 3.70289 14.3021 3.56689 14.623 3.44689C15.0365 3.29171 15.4651 3.18109 15.9016 3.11689C16.4704 3.03305 17.041 2.96237 17.613 2.90489V1.44989L17.1673 0.999894H1.39841L0.980469 1.44989V2.69189C3.62678 2.85089 5.10641 3.60889 5.41937 4.96489C5.6016 6.10989 5.68876 7.26789 5.68083 8.42689V32.5539C5.72461 33.8071 5.67197 35.0619 5.52336 36.3069C5.45106 36.5009 5.34509 36.6789 5.2104 36.8349C5.00873 37.0784 4.79555 37.3121 4.5716 37.5349C4.39417 37.708 4.22432 37.8888 4.06255 38.0769V39.0019C17.5189 39.0019 25.848 39.0899 29.0499 39.2669L30.174 35.4349L29.4689 34.9319C24.2694 35.5929 19.0401 35.9899 13.802 36.1219L13.801 36.1229ZM38.8142 25.0769C38.7631 25.0913 38.7106 25.1001 38.6577 25.1029C38.3972 25.1029 38.2665 25.0069 38.2665 24.8129C38.2675 23.9369 38.3328 23.0619 38.4626 22.1959C38.6091 21.2519 38.8538 20.3259 39.1935 19.4349C39.5208 18.5315 39.9697 17.6778 40.5275 16.8979C41.1187 16.1045 41.8864 15.4626 42.7687 15.0242C43.6509 14.5857 44.6229 14.363 45.6062 14.3739C46.3158 14.3341 47.0234 14.4814 47.6596 14.8012C48.2958 15.121 48.8387 15.6023 49.235 16.1979C50.0581 17.4297 50.4868 18.8871 50.4631 20.3729C50.4596 20.6453 50.3739 20.9101 50.2174 21.132C50.061 21.3539 49.8413 21.5224 49.5876 21.6149C48.1578 22.1967 46.6978 22.6997 45.214 23.1219C43.1272 23.7419 41.0473 24.3853 38.9746 25.0519C38.9204 25.0542 38.8665 25.0626 38.8142 25.0769ZM54.3236 33.3219C51.189 35.2419 48.4823 36.2019 46.2044 36.2019C44.6612 36.2357 43.146 35.7831 41.8695 34.9069C40.682 34.1023 39.7378 32.9821 39.141 31.6699C38.5534 30.354 38.255 28.9253 38.2665 27.4819C49.6509 23.9059 55.3952 22.1169 55.4992 22.1169C55.9513 22.0235 56.3553 21.7696 56.6378 21.4011C56.9204 21.0327 57.0628 20.5742 57.0392 20.1089C57.0702 18.8116 56.769 17.5282 56.1647 16.3829C55.6129 15.3585 54.7962 14.5045 53.8016 13.9119C52.7982 13.3172 51.7108 12.8805 50.5769 12.6169C49.3471 12.3357 48.0893 12.1982 46.8283 12.2069C44.5663 12.1715 42.323 12.6267 40.2502 13.5419C38.4226 14.339 36.8078 15.5617 35.538 17.1099C34.3408 18.6069 33.4169 20.3071 32.8094 22.1309C32.1796 24.0075 31.8616 25.9764 31.8686 27.9579C31.8686 32.0279 32.958 35.0759 35.1329 37.1019C37.0998 38.9519 39.8768 39.8759 43.462 39.8759C45.5177 39.8546 47.5411 39.3575 49.3766 38.4229C51.587 37.3113 53.7045 36.0204 55.7081 34.5629L55.1367 33.5349L54.3236 33.3219ZM89.4911 5.45689C88.7915 3.61168 87.4176 2.10772 85.6524 1.25489C83.4658 0.326042 81.104 -0.106812 78.7336 -0.0131064C77.0038 -0.0231252 75.2798 0.189931 73.6034 0.620894C72.044 1.0218 70.5554 1.66372 69.1902 2.52389C67.8531 3.37504 66.7595 4.56436 66.018 5.97389C65.2131 7.51566 64.8087 9.23837 64.8424 10.9809C64.8415 12.2282 65.1417 13.457 65.717 14.5609C66.2664 15.6534 67.01 16.6347 67.9107 17.4559C68.8793 18.3185 69.9087 19.1089 70.9908 19.8209C72.0769 20.5516 73.2016 21.2219 74.36 21.8289C75.449 22.3941 76.5202 22.9937 77.5719 23.6269C78.4434 24.1249 79.2615 24.7139 80.0132 25.3839C81.9444 27.1989 82.911 28.9249 82.911 30.5639C82.9075 31.4345 82.7272 32.2951 82.3814 33.0927C82.0357 33.8902 81.5317 34.6077 80.9005 35.2009C80.2741 35.852 79.5226 36.3672 78.692 36.7149C77.8615 37.0626 76.9694 37.2354 76.0704 37.2229C75.0193 37.2534 73.9751 37.0406 73.0179 36.6009C72.0608 36.1611 71.2159 35.5061 70.5481 34.6859C69.1622 33.0835 68.4054 31.0242 68.4207 28.8969L67.4036 28.5269L62.208 34.4199C63.3954 36.1551 65.0053 37.5522 66.8826 38.4769C68.7915 39.4225 70.8919 39.9069 73.0181 39.8919C74.9581 39.882 76.8856 39.5787 78.7366 38.9919C80.5979 38.4261 82.373 37.6033 84.0113 36.5469C85.5688 35.5426 86.8915 34.2085 87.8877 32.6369C88.8641 31.1425 89.3861 29.3922 89.3891 27.6019C89.3969 26.6411 89.2291 25.6871 88.8939 24.7879C88.5839 23.9528 88.1527 23.1689 87.6144 22.4619C86.9807 21.677 86.2474 20.9796 85.4335 20.3879C84.5442 19.7107 83.6156 19.088 82.6525 18.5229C81.4998 17.8597 80.3336 17.2209 79.1545 16.6069C78.3323 16.2045 77.5225 15.777 76.7261 15.3249C75.9729 14.8804 75.2399 14.402 74.5294 13.8909C73.8009 13.3867 73.1352 12.7958 72.5467 12.1309C72.0294 11.5104 71.6068 10.8154 71.2928 10.0689C70.9443 9.26505 70.7665 8.39638 70.7709 7.51889C70.7548 6.80124 70.8815 6.08763 71.1435 5.42031C71.4055 4.75299 71.7974 4.14553 72.2961 3.63389C72.8231 3.10204 73.4538 2.68653 74.1482 2.41369C74.8425 2.14085 75.5855 2.01662 76.3299 2.04889C77.252 2.00868 78.1715 2.17494 79.0225 2.53576C79.8735 2.89657 80.6349 3.44301 81.2521 4.13589C82.4889 5.5492 83.2678 7.31068 83.4845 9.18389L84.3986 9.47389L89.4911 5.45689ZM114.883 15.5919C114.416 14.7671 113.74 14.0829 112.925 13.6099C112.117 13.1441 111.246 12.8014 110.34 12.5929C109.367 12.3751 108.373 12.2687 107.376 12.2759C105.476 12.2489 103.586 12.5759 101.802 13.2409C100.271 13.8022 98.8679 14.6695 97.6767 15.7909C96.5696 16.8738 95.6516 18.1375 94.961 19.5289C94.2513 20.9286 93.7287 22.4173 93.4071 23.9559C93.0899 25.5121 92.9326 27.0971 92.9377 28.6859C92.9317 30.0359 93.1209 31.3799 93.4982 32.6739C93.8647 33.9269 94.4342 35.1099 95.1819 36.1759C95.9704 37.2754 97.0279 38.1496 98.2511 38.7129C99.6555 39.3609 101.186 39.6819 102.729 39.6509C107.62 39.6509 112.216 37.4749 116.515 33.1239L115.993 32.3569L115.34 32.1989C112.155 34.6829 109.213 35.9249 106.515 35.9249C105.505 35.9413 104.506 35.71 103.604 35.2509C102.786 34.841 102.075 34.2442 101.525 33.5079C100.98 32.751 100.536 31.9245 100.206 31.0499C99.8633 30.1766 99.614 29.2687 99.4623 28.3419C99.3237 27.4679 99.2544 26.5839 99.2534 25.6989C99.2593 24.5739 99.3554 23.4519 99.5406 22.3429C99.7456 21.1079 100.052 19.8929 100.455 18.7089C100.821 17.5518 101.457 16.5003 102.309 15.6429C102.684 15.2592 103.131 14.9551 103.624 14.7487C104.118 14.5423 104.647 14.4376 105.181 14.4409C105.894 14.4012 106.605 14.5632 107.232 14.9088C107.859 15.2543 108.378 15.7697 108.731 16.3969C109.539 17.8656 109.936 19.5281 109.88 21.2069L110.794 21.5769L115.729 18.6179C115.689 17.5557 115.399 16.5185 114.883 15.5919ZM124.453 23.4539C124.585 22.4159 124.817 21.3939 125.145 20.4019C125.445 19.4369 125.871 18.5179 126.411 17.6669C126.929 16.8786 127.622 16.2227 128.435 15.7509C129.311 15.2401 130.309 14.9798 131.32 14.9979C132.417 14.9697 133.499 15.2583 134.44 15.8299C135.313 16.3792 136.015 17.1673 136.463 18.1029C136.936 19.0699 137.277 20.0959 137.48 21.1549C137.695 22.2949 137.801 23.4549 137.794 24.6169C137.794 25.6739 137.785 26.5549 137.767 27.2589C137.74 28.107 137.679 28.9536 137.585 29.7969C137.508 30.6269 137.364 31.4479 137.154 32.2539C136.949 32.9639 136.683 33.6539 136.358 34.3159C136.059 34.9712 135.628 35.5561 135.091 36.0329C134.538 36.4894 133.911 36.8469 133.237 37.0899C132.421 37.3848 131.559 37.5281 130.692 37.5129C129.737 37.5247 128.802 37.2383 128.015 36.6929C127.247 36.1734 126.609 35.4818 126.149 34.6719C125.667 33.8003 125.29 32.8733 125.026 31.9109C124.749 30.9638 124.548 29.9957 124.425 29.0159C124.324 28.1697 124.272 27.3182 124.268 26.4659C124.268 25.459 124.329 24.4531 124.453 23.4539ZM121.215 37.1169C123.112 38.8609 126.123 39.7329 130.249 39.7329C131.775 39.7429 133.296 39.5659 134.779 39.2039C136.175 38.8536 137.505 38.2782 138.719 37.4999C139.94 36.7226 141.006 35.7233 141.866 34.5529C142.806 33.2258 143.504 31.7402 143.929 30.1659C144.455 28.2567 144.71 26.2816 144.686 24.2999C144.737 22.7043 144.443 21.1167 143.825 19.6473C143.208 18.1778 142.281 16.8615 141.109 15.7899C138.932 13.8179 135.773 12.8309 131.631 12.8309C127.488 12.8309 124.076 14.1259 121.395 16.7159C120.079 17.972 119.041 19.4946 118.348 21.1842C117.655 22.8737 117.323 24.692 117.374 26.5199C117.374 31.2419 118.653 34.7739 121.212 37.1169H121.215ZM162.076 16.1869C163.469 16.1869 164.461 16.4689 165.054 17.0329C165.605 17.7129 165.954 18.5389 166.058 19.4129C166.277 20.4429 166.412 21.4909 166.463 22.5439C166.497 23.4689 166.515 24.6629 166.515 26.1249C166.514 28.0233 166.501 29.9217 166.477 31.8199C166.468 32.3919 166.472 33.0659 166.489 33.8419C166.494 34.4199 166.528 34.9979 166.594 35.5719C166.646 35.9519 166.715 36.3659 166.803 36.8139C166.863 37.1899 166.987 37.5509 167.168 37.8839C167.324 38.1489 167.517 38.3899 167.74 38.5989C168.524 39.3166 169.555 39.6957 170.612 39.6549C171.918 39.6549 173.414 38.9849 175.103 37.6469C176.512 36.4635 177.854 35.2015 179.124 33.8669L178.524 32.9669H177.897C176.876 33.7941 175.627 34.2833 174.321 34.3679C174.044 34.3839 173.767 34.343 173.506 34.2476C173.246 34.1522 173.007 34.0043 172.805 33.8129C172.625 33.669 172.47 33.4952 172.348 33.2989C172.204 32.9532 172.112 32.5879 172.074 32.2149C171.974 31.4573 171.931 30.6931 171.944 29.9289C171.944 29.3479 171.974 28.4089 172.035 27.1149C172.083 26.1949 172.114 25.2741 172.127 24.3529V22.7669C172.144 21.0579 172.14 19.8739 172.114 19.2119C172.062 18.3087 171.961 17.4091 171.813 16.5169C171.748 15.6757 171.469 14.8656 171.004 14.1649C170.544 13.6614 169.995 13.2494 169.384 12.9499C168.556 12.545 167.642 12.3497 166.721 12.3809C163.658 12.3809 160.107 13.6499 156.069 16.1869L155.442 15.9489C155.408 14.9772 155.095 14.0363 154.542 13.2409C154.028 12.5609 153.144 12.2229 151.891 12.2229C151.14 12.2324 150.396 12.3617 149.685 12.6059C148.858 12.8859 148.068 13.2679 147.334 13.7419C146.541 14.2449 145.854 14.7119 145.271 15.1429C144.687 15.5739 144.013 16.0979 143.247 16.7149L144.213 18.0099C144.39 17.8939 144.569 17.7796 144.749 17.6669C145.053 17.4729 145.318 17.3149 145.545 17.1909C145.771 17.0679 146.041 16.9229 146.354 16.7549C146.634 16.6009 146.927 16.4719 147.23 16.3689C147.46 16.2889 147.702 16.2439 147.947 16.2369C148.249 16.2299 148.547 16.3069 148.808 16.4619C149.074 16.6389 149.274 16.8989 149.381 17.2019C149.511 17.5219 149.624 17.8469 149.719 18.1789C149.826 18.6259 149.888 19.0819 149.903 19.5409C149.938 20.1409 149.959 20.6249 149.966 20.9939C149.974 21.3629 149.978 21.9179 149.979 22.6589V23.1089C149.979 24.8349 149.848 30.1199 149.588 38.9639L150.24 39.3339L156.115 37.6159C155.941 36.8589 155.81 34.4719 155.723 30.4559C155.637 26.5275 155.594 22.5983 155.596 18.6689C158.625 17.0129 160.783 16.1849 162.071 16.1849L162.076 16.1869ZM187.404 25.1969C187.353 25.2122 187.3 25.2216 187.247 25.2249C186.987 25.2249 186.856 25.1279 186.855 24.9349C186.856 24.0579 186.921 23.1839 187.052 22.3179C187.199 21.3739 187.443 20.4479 187.782 19.5559C188.11 18.6529 188.557 17.7989 189.114 17.0189C189.705 16.2253 190.473 15.5832 191.355 15.1447C192.237 14.7063 193.209 14.4836 194.193 14.4949C194.902 14.455 195.61 14.6022 196.246 14.922C196.882 15.2418 197.425 15.7232 197.821 16.3189C198.645 17.5506 199.073 19.0081 199.048 20.4939C199.045 20.766 198.959 21.0306 198.803 21.2524C198.647 21.4742 198.427 21.6428 198.174 21.7359C196.744 22.3174 195.285 22.8204 193.801 23.2429C191.714 23.8628 189.634 24.5062 187.561 25.1729C187.508 25.1758 187.456 25.1842 187.405 25.1979L187.404 25.1969ZM202.913 33.4429C199.778 35.3639 197.072 36.3239 194.793 36.3229C193.25 36.3565 191.735 35.9042 190.458 35.0289C189.271 34.224 188.327 33.1039 187.73 31.7919C187.142 30.4755 186.844 29.046 186.855 27.6019C198.239 24.0269 203.984 22.2389 204.089 22.2389C204.541 22.1451 204.945 21.8909 205.227 21.5224C205.51 21.1538 205.652 20.6953 205.629 20.2299C205.659 18.9326 205.358 17.6492 204.754 16.5039C204.202 15.4795 203.386 14.6256 202.391 14.0329C201.387 13.4384 200.3 13.0018 199.166 12.7379C197.936 12.4566 196.678 12.3191 195.417 12.3279C193.155 12.2927 190.913 12.7479 188.841 13.6629C187.013 14.4599 185.398 15.6826 184.128 17.2309C182.931 18.7277 182.007 20.4279 181.4 22.2519C180.77 24.1284 180.452 26.0975 180.46 28.0789C180.46 32.1489 181.547 35.1959 183.723 37.2229C185.69 39.0729 188.466 39.9969 192.052 39.9969C194.108 39.9755 196.131 39.4785 197.967 38.5439C200.177 37.4321 202.295 36.1415 204.298 34.6849L203.727 33.6559L202.913 33.4429Z" fill="#9C9C9C"/>
</g>
</g>
<defs>
<clipPath id="clip0_6_34">
<rect width="206" height="41" fill="white"/>
</clipPath>
</defs>
</svg>
