<svg width="146" height="36" viewBox="0 0 146 36" fill="none" xmlns="http://www.w3.org/2000/svg">
<g clip-path="url(#clip0_6_40)">
<path d="M47.9669 35.52V0H39.1122L20.5978 27.408L17.4726 23.424C23.0601 22.56 26.1853 17.568 26.1853 12.24C26.1853 7.152 23.4389 2.88 19.7455 1.248C17.8988 0.432 15.1524 0 11.5064 0H0V35.52H8.57059V24.048H8.6653L16.7624 35.52H25.8065L28.8843 30.384H39.0175V35.52H47.9669ZM8.57059 17.856V7.968H11.9799C15.3418 7.968 17.6147 9.696 17.6147 12.768C17.6147 16.032 15.4839 17.856 11.9325 17.856H8.57059ZM39.0175 23.184H33.1459L38.9228 13.344H39.0175V23.184ZM83.8809 35.52V0H75.3103L75.6891 22.464L62.052 0H54.3337V35.52H62.9043L62.6675 13.824L76.1153 35.52H83.8809ZM109.725 35.52V27.552H98.8341V21.456H109.393V13.488H98.8341V7.968H109.725V0H90.2635V35.52H109.725ZM145.3 35.52L132.941 17.712L144.542 0H135.166L125.27 15.984H125.175V0H116.226V35.52H125.175V20.16H125.27L134.835 35.52H145.3Z" fill="#9C9C9C"/>
</g>
<defs>
<clipPath id="clip0_6_40">
<rect width="146" height="36" fill="white"/>
</clipPath>
</defs>
</svg>
