<svg width="198" height="49" viewBox="0 0 198 49" fill="none" xmlns="http://www.w3.org/2000/svg">
<g clip-path="url(#clip0_6_42)">
<path d="M53.8371 44.0141C50.5503 44.0141 48.0308 43.4461 46.2775 42.3101C44.5549 41.1421 43.6946 39.4371 43.6946 37.1961C43.6946 36.0601 44.0708 35.1281 44.8212 34.4021C45.6043 33.6451 46.6062 33.2661 47.8268 33.2661C48.5466 33.2981 49.094 33.4861 49.4702 33.8341C49.8464 34.1501 50.0345 34.4501 50.0345 34.7341C50.0345 34.7651 49.8771 34.8761 49.5643 35.0651C49.2514 35.2551 48.9703 35.5391 48.7188 35.9171C48.4684 36.2971 48.3426 36.8171 48.3426 37.4801C48.3426 38.9641 48.7822 40.1161 49.6583 40.9371C50.5662 41.7261 51.9591 42.1201 53.8371 42.1201C55.1212 42.1201 56.2478 41.8681 57.219 41.3631C58.1892 40.8581 58.9247 40.1951 59.4257 39.3741C59.9573 38.5221 60.2236 37.6381 60.2236 36.7221C60.2236 35.5861 59.8949 34.6081 59.2376 33.7871C58.5991 32.9555 57.8006 32.2629 56.8903 31.7511C55.9498 31.1831 54.6667 30.5351 53.0392 29.8091C51.1612 28.9571 49.6435 28.1841 48.4852 27.4891C47.3212 26.7902 46.3133 25.8552 45.5251 24.7431C44.7123 23.5751 44.3054 22.1391 44.3054 20.4341C44.3054 17.6881 45.2281 15.6361 47.0754 14.2791C48.9544 12.9211 51.4116 12.2431 54.448 12.2431C56.8269 12.2431 58.8931 12.7481 60.6463 13.7581C62.4313 14.7681 63.3233 16.2521 63.3233 18.2081C63.3233 19.3451 62.9313 20.2921 62.1492 21.0501C61.3978 21.7761 60.4117 22.1391 59.191 22.1391C58.4703 22.1071 57.9229 21.9331 57.5476 21.6181C57.1714 21.2711 56.9833 20.9551 56.9833 20.6711C56.9833 20.6391 57.1873 20.5291 57.5942 20.3391C58.0327 20.1501 58.408 19.8661 58.7208 19.4871C59.0653 19.1081 59.2376 18.5871 59.2376 17.9251C59.2376 16.7571 58.7842 15.8411 57.8763 15.1781C56.9992 14.5151 55.8726 14.1841 54.4945 14.1841C52.5858 14.1841 51.1295 14.6421 50.1286 15.5571C49.1574 16.4411 48.6723 17.5461 48.6723 18.8721C48.6723 19.9761 48.9693 20.9081 49.5643 21.6651C50.1583 22.3911 51.1136 23.1171 52.4284 23.8431C53.5684 24.4486 54.7273 25.0172 55.9033 25.5481C57.907 26.4631 59.488 27.3001 60.6463 28.0581C61.839 28.8188 62.8494 29.8377 63.6045 31.0411C64.4182 32.2711 64.8261 33.8031 64.8261 35.6331C64.8261 37.2121 64.3252 38.6481 63.3233 39.9431C62.3531 41.2051 61.0216 42.1991 59.3316 42.9251C57.6724 43.6511 55.8409 44.0141 53.8371 44.0141ZM77.61 43.6361C75.4815 43.6361 73.7906 42.9881 72.5382 41.6941C71.2859 40.4001 70.6602 38.6951 70.6602 36.5801V27.8201C70.6602 27.0001 70.6285 26.4001 70.5661 26.0211C70.5355 25.6431 70.3474 25.3111 70.0018 25.0271C69.6583 24.7431 69.0792 24.6011 68.2654 24.6011C67.8892 24.6011 67.608 24.5541 67.4199 24.4591C67.2318 24.3331 67.1388 24.0641 67.1388 23.6541C67.1388 23.4641 67.2011 23.2911 67.3269 23.1341C67.4516 22.9441 67.6397 22.8341 67.8902 22.8021C69.8623 22.5171 71.5532 22.1071 72.961 21.5701C73.3995 21.4131 73.7589 21.3181 74.041 21.2861H74.1816C74.6826 21.2861 74.934 21.5861 74.934 22.1861V36.5331C74.934 37.9851 75.3874 39.1061 76.2953 39.8951C77.1753 40.6425 78.2919 41.0456 79.4415 41.0311C80.9126 41.0311 82.164 40.6681 83.1976 39.9421C84.2311 39.2161 84.9202 38.4901 85.2637 37.7641V27.8211C85.2637 27.0001 85.233 26.4011 85.1706 26.0211C85.1389 25.6431 84.9508 25.3111 84.6063 25.0271C84.2618 24.7431 83.6827 24.6011 82.8689 24.6011C82.4927 24.6011 82.2115 24.5541 82.0244 24.4591C81.8363 24.3331 81.7423 24.0641 81.7423 23.6541C81.7423 23.4641 81.8046 23.2911 81.9304 23.1341C82.0551 22.9441 82.2432 22.8341 82.4937 22.8021C84.4658 22.5171 86.1567 22.1071 87.5654 21.5701C88.003 21.4131 88.3634 21.3181 88.6445 21.2861H88.7861C89.287 21.2861 89.5375 21.5861 89.5375 22.1861V38.5701C89.5375 40.4331 90.774 41.3641 93.247 41.3641C93.7787 41.3641 94.045 41.6641 94.045 42.2641C94.045 42.7051 93.7787 42.9741 93.247 43.0681L85.6864 43.5891C85.4676 43.5891 85.3419 43.5101 85.3102 43.3531C85.2805 43.2261 85.2637 42.9901 85.2637 42.6431V39.9901H85.1706C84.4519 40.672 83.7158 41.3349 82.9629 41.9781C82.3996 42.4201 81.664 42.7991 80.7552 43.1151C79.8791 43.4621 78.8307 43.6351 77.61 43.6351V43.6361ZM96.614 43.2101C96.5046 43.2096 96.3968 43.1836 96.2989 43.1342C96.201 43.0848 96.1158 43.0132 96.0497 42.9251C95.925 42.7361 95.8616 42.5151 95.8616 42.2631C95.8933 41.8531 95.9874 41.6151 96.1438 41.5531C96.3012 41.4581 96.5824 41.4101 96.9892 41.4101C97.803 41.4101 98.3822 41.2681 98.7267 40.9841C99.0712 40.7001 99.2593 40.3681 99.29 39.9901C99.3534 39.6101 99.3841 39.0111 99.3841 38.1901V27.3471C99.3841 26.5271 99.3534 25.9271 99.29 25.5471C99.2593 25.1691 99.0712 24.8371 98.7267 24.5541C98.3822 24.2701 97.803 24.1271 96.9892 24.1271C96.613 24.1271 96.3319 24.0801 96.1448 23.9851C95.9567 23.8591 95.8626 23.5911 95.8626 23.1801C95.8626 22.9911 95.925 22.8171 96.0507 22.6601C96.1755 22.4701 96.3636 22.3601 96.614 22.3281C98.6485 22.0121 100.324 21.6021 101.638 21.0971C102.171 20.9391 102.53 20.8441 102.718 20.8131H102.859C103.36 20.8131 103.61 21.1131 103.61 21.7131V24.6481H103.751C104.847 23.5431 105.959 22.6751 107.085 22.0441C108.213 21.3811 109.23 21.0501 110.137 21.0501C111.171 21.0501 111.985 21.4441 112.58 22.2331C113.205 22.9911 113.518 23.8751 113.518 24.8851C113.518 25.7691 113.253 26.5581 112.72 27.2521C112.188 27.9471 111.452 28.2941 110.514 28.2941C110.105 28.3013 109.701 28.2036 109.339 28.0101C109.027 27.8201 108.854 27.6631 108.823 27.5371C108.854 27.4741 109.011 27.2841 109.292 26.9681C109.574 26.6211 109.715 26.2271 109.715 25.7851C109.715 25.2161 109.558 24.7591 109.245 24.4121C108.963 24.0641 108.572 23.8911 108.071 23.8911C107.54 23.8911 106.866 24.1591 106.053 24.6961C105.238 25.2011 104.44 25.8481 103.658 26.6371V38.1901C103.658 39.0111 103.689 39.6101 103.751 39.9901C103.814 40.3681 104.017 40.7001 104.362 40.9841C104.706 41.2681 105.285 41.4101 106.099 41.4101H106.381C106.632 41.4101 106.819 41.4581 106.945 41.5521C107.069 41.6471 107.148 41.8841 107.179 42.2621C107.179 42.5151 107.117 42.7361 106.991 42.9251C106.866 43.1151 106.678 43.2101 106.428 43.2101C104.786 43.12 103.142 43.0723 101.498 43.0671C100.089 43.0671 98.4614 43.1161 96.614 43.2101ZM169.544 43.6361C167.416 43.6361 165.522 43.1301 163.863 42.1201C162.204 41.0791 160.905 39.7211 159.965 38.0481C159.07 36.3928 158.602 34.5363 158.604 32.6501C158.604 30.2831 159.151 28.2311 160.247 26.4951C161.343 24.7271 162.736 23.3851 164.426 22.4701C166.117 21.5231 167.823 21.0501 169.544 21.0501C171.674 21.0501 173.568 21.5701 175.227 22.6121C176.854 23.5888 178.186 24.9971 179.077 26.6841C180.004 28.3112 180.49 30.1567 180.486 32.0341C180.486 34.4021 179.923 36.4701 178.796 38.2381C177.7 39.9741 176.307 41.3151 174.616 42.2621C172.926 43.1781 171.235 43.6361 169.544 43.6361ZM169.544 41.8841C171.674 41.8841 173.223 40.9681 174.193 39.1371C175.195 37.3071 175.696 34.9391 175.696 32.0351C175.696 29.3201 175.179 27.1111 174.147 25.4051C173.145 23.6701 171.61 22.8021 169.544 22.8021C167.385 22.8021 165.82 23.7021 164.849 25.5011C163.879 27.3001 163.394 29.6511 163.394 32.5561C163.394 35.2701 163.894 37.5121 164.896 39.2791C165.898 41.0161 167.448 41.8841 169.544 41.8841ZM192.318 43.8721C190.784 43.8721 189.469 43.3041 188.373 42.1681C187.278 41.0311 186.73 39.4061 186.73 37.2911V23.3701L184.006 23.4651C183.915 23.4658 183.825 23.4448 183.743 23.4036C183.662 23.3624 183.591 23.3022 183.537 23.2281C183.414 23.0468 183.348 22.832 183.349 22.6121C183.349 22.3281 183.396 22.0921 183.49 21.9021C183.615 21.6811 183.787 21.5551 184.006 21.5231C185.102 21.3031 185.948 20.9551 186.543 20.4821C187.168 19.9761 187.623 19.4401 187.904 18.8721C188.186 18.2721 188.531 17.3721 188.937 16.1721C189.094 15.7621 189.438 15.5571 189.97 15.5571C190.189 15.5571 190.409 15.6201 190.627 15.7471C190.846 15.8411 190.956 15.9991 190.956 16.2201L190.627 21.6181L196.122 21.2861H196.216C196.623 21.2861 196.826 21.5861 196.826 22.1861C196.826 22.5331 196.763 22.8651 196.638 23.1801C196.545 23.4651 196.419 23.6071 196.262 23.6071L191.004 23.4651V37.8591C191.004 38.9011 191.207 39.7691 191.613 40.4631C192.052 41.1581 192.756 41.5051 193.727 41.5051C194.697 41.5051 195.559 41.3311 196.309 40.9841C196.717 40.8261 196.966 40.7471 197.06 40.7471C197.28 40.7471 197.452 40.8421 197.577 41.0311C197.703 41.1891 197.828 41.4111 197.953 41.6941C197.987 41.7685 198.003 41.8495 198 41.9311C198 42.0571 197.906 42.1991 197.718 42.3571C196.81 42.9571 195.95 43.3521 195.136 43.5411C194.353 43.7611 193.413 43.8721 192.318 43.8721ZM116.421 42.9251C116.546 43.1151 116.734 43.2091 116.984 43.2091C118.611 43.1189 120.239 43.0716 121.868 43.0671C123.966 43.0671 125.922 43.1151 127.738 43.2091C127.841 43.2115 127.943 43.1865 128.034 43.1367C128.124 43.0868 128.2 43.0139 128.254 42.9251C128.379 42.7351 128.442 42.5151 128.442 42.2621C128.411 41.8841 128.333 41.6471 128.207 41.5521C128.113 41.4581 127.926 41.4101 127.644 41.4101H127.361C126.329 41.4101 125.593 41.3311 125.155 41.1731C124.716 41.0161 124.419 40.7311 124.263 40.3211C124.106 39.8791 124.028 39.1691 124.028 38.1911V23.4631H129.006C129.115 23.4626 129.223 23.4367 129.32 23.3874C129.418 23.3382 129.503 23.2669 129.569 23.1791C129.726 22.9901 129.804 22.7691 129.804 22.5161C129.772 22.1381 129.678 21.9011 129.522 21.8061C129.397 21.6801 129.193 21.6161 128.912 21.6161H124.028V18.7761C124.028 17.2611 124.09 15.9351 124.215 14.7981C124.332 13.6566 124.701 12.5563 125.295 11.5781C125.89 10.6001 126.814 10.1111 128.066 10.1111C128.21 10.1111 128.349 10.1191 128.484 10.1361C128.466 9.60562 128.501 9.07469 128.587 8.5511C128.523 8.54931 128.459 8.54831 128.395 8.5481C125.64 8.6111 123.496 9.6681 121.962 11.7211C120.459 13.7411 119.708 16.3771 119.708 19.6281V21.6171H116.89C116.483 21.6171 116.201 21.6641 116.045 21.7591C115.888 21.8221 115.794 22.0751 115.764 22.5161C115.764 22.7691 115.826 22.9901 115.951 23.1791C116.108 23.3691 116.311 23.4641 116.562 23.4641H119.708V38.1901C119.708 39.0431 119.676 39.6581 119.614 40.0371C119.583 40.3841 119.395 40.7001 119.05 40.9841C118.706 41.2681 118.127 41.4101 117.313 41.4101C116.906 41.4101 116.624 41.4581 116.467 41.5521C116.343 41.6151 116.265 41.8521 116.233 42.2621C116.233 42.5151 116.295 42.7361 116.421 42.9251Z" fill="#9C9C9C"/>
<path fill-rule="evenodd" clip-rule="evenodd" d="M141.522 9.865C141.522 10.5564 141.386 11.2409 141.124 11.8794C140.861 12.518 140.477 13.098 139.992 13.5865C139.508 14.0749 138.933 14.4622 138.3 14.7261C137.668 14.9901 136.99 15.1257 136.305 15.125C134.923 15.1261 133.597 14.5725 132.618 13.5862C131.64 12.5998 131.089 11.2613 131.088 9.865C131.088 9.17346 131.224 8.48879 131.486 7.85009C131.749 7.21139 132.133 6.63117 132.618 6.14255C133.102 5.65392 133.677 5.26647 134.31 5.00232C134.943 4.73816 135.621 4.60247 136.305 4.603C136.99 4.60234 137.668 4.73794 138.301 5.00205C138.933 5.26616 139.508 5.6536 139.993 6.14225C140.477 6.6309 140.862 7.21118 141.124 7.84994C141.387 8.4887 141.522 9.17342 141.522 9.865ZM136.305 12.495C136.647 12.4954 136.986 12.4277 137.303 12.2957C137.619 12.1637 137.907 11.9701 138.149 11.7259C138.391 11.4816 138.583 11.1916 138.715 10.8723C138.846 10.553 138.914 10.2107 138.914 9.865C138.914 9.51919 138.846 9.1768 138.715 8.85739C138.584 8.53798 138.391 8.24782 138.149 8.00348C137.907 7.75914 137.619 7.56542 137.303 7.43339C136.987 7.30136 136.648 7.2336 136.305 7.234C135.614 7.23373 134.951 7.51058 134.462 8.00371C133.973 8.49685 133.698 9.16594 133.697 9.864C133.697 10.5622 133.973 11.2316 134.462 11.7249C134.951 12.2183 135.614 12.4953 136.305 12.495ZM134.018 17.414V42.784C134.018 43.067 134.097 43.288 134.254 43.446C134.41 43.636 134.629 43.73 134.911 43.73C135.192 43.73 135.427 43.604 135.615 43.352C135.803 43.131 135.975 42.799 136.132 42.357C136.288 41.915 136.429 41.568 136.555 41.315H136.789C138.824 42.862 141.234 43.635 144.02 43.635C145.899 43.635 147.667 43.13 149.327 42.12C150.986 41.11 152.301 39.737 153.272 38C154.273 36.233 154.774 34.292 154.774 32.177C154.774 30.03 154.336 28.121 153.459 26.447C152.614 24.743 151.44 23.417 149.937 22.47C148.435 21.523 146.76 21.05 144.913 21.05C143.786 21.05 142.643 21.286 141.485 21.76C140.358 22.202 139.34 22.88 138.433 23.796H138.292V17.5C136.887 17.8685 135.408 17.8388 134.018 17.414ZM148.2 39.421C147.042 41.158 145.507 42.026 143.598 42.026C142.597 42.026 141.705 41.805 140.922 41.363C140.17 40.921 139.559 40.4 139.09 39.8C138.651 39.169 138.386 38.6 138.292 38.096V25.596C139.637 24.143 141.297 23.417 143.27 23.417C145.492 23.417 147.166 24.301 148.294 26.069C149.421 27.805 149.984 29.904 149.984 32.366C149.984 35.302 149.39 37.654 148.2 39.421ZM12.573 0.366998C12.9051 0.127971 13.3027 -0.000488281 13.7105 -0.000488281C14.1183 -0.000488281 14.5159 0.127971 14.848 0.366998C23.3224 6.471 27.1636 13.788 27.4061 24.287C27.518 29.3 27.0398 33.89 25.5836 37.855C24.0887 41.823 21.4325 45.488 17.522 48.584C17.2785 48.7751 16.9938 48.9055 16.6911 48.9646C16.3883 49.0237 16.076 49.0098 15.7796 48.924C14.5817 48.577 14.3777 47.145 13.7105 46.253C13.0432 47.145 12.8413 48.576 11.6414 48.923C11.3451 49.0086 11.033 49.0224 10.7304 48.9633C10.4279 48.9043 10.1433 48.774 9.89997 48.583C5.98947 45.488 3.33231 41.823 1.8384 37.855C0.383103 33.89 -0.096057 29.3 0.015813 24.287C0.257373 13.788 4.09857 6.47 12.573 0.366998ZM16.9547 44.062C19.402 41.792 20.8771 39.317 21.9186 36.47C23.2303 32.99 23.6085 29.144 23.4947 24.379C23.3066 16.192 21.4058 10.865 15.6509 5.919V20.387C17.9012 20.971 18.911 23.197 18.911 25.647C18.911 28.099 17.9012 30.325 15.6509 30.909V42.746C15.6509 42.746 16.6963 43.719 16.9547 44.062ZM10.4326 44.062C7.98531 41.792 6.54486 39.317 5.50239 36.47C4.19163 32.99 3.81345 29.144 3.92829 24.379C4.11639 16.209 6.0063 10.859 11.7374 5.919V20.387C9.48714 20.971 8.47635 23.197 8.47635 25.647C8.47635 28.099 9.48615 30.325 11.7374 30.909V42.746C11.7374 42.746 10.6821 43.731 10.4326 44.062ZM13.6937 23.017C13.0025 23.0165 12.3394 23.2932 11.8502 23.7864C11.361 24.2796 11.0858 24.9489 11.085 25.647C11.085 27.101 12.2532 28.278 13.6937 28.278C14.3848 28.2785 15.0479 28.0018 15.5371 27.5086C16.0263 27.0154 16.3015 26.3461 16.3023 25.648C16.3023 24.195 15.1341 23.017 13.6937 23.017Z" fill="#9C9C9C"/>
</g>
<defs>
<clipPath id="clip0_6_42">
<rect width="198" height="49" fill="white"/>
</clipPath>
</defs>
</svg>
