<svg width="196" height="34" viewBox="0 0 196 34" fill="none" xmlns="http://www.w3.org/2000/svg">
<path d="M21.4231 32.9551C20.2617 32.9866 19.1112 32.7221 18.0776 32.1861C17.0496 31.6538 16.1728 30.8657 15.5299 29.8961C13.5056 31.7746 10.8831 32.8596 8.13612 32.9551C3.20001 32.9551 0.524591 29.4911 1.42827 24.5251C2.11519 20.7911 5.18851 17.0491 6.04765 14.0451C4.38479 13.0371 1.91624 12.3351 0.759173 14.3951L0 13.9361C0.605754 11.6781 2.06966 10.1761 4.18485 10.1761C6.30005 10.1761 7.86392 11.4261 9.88013 10.2751H11.4886C10.6304 14.7731 8.46077 18.3711 7.3037 24.6691C6.59896 28.5291 7.90945 30.2831 10.1246 30.2831C11.761 30.0798 13.2662 29.2758 14.354 28.0241C13.4706 25.8277 13.0253 23.4768 13.0435 21.1061C13.0435 15.6361 15.5655 9.87009 19.7959 9.87009C21.9655 9.87009 23.5739 11.3721 23.5739 14.9351C23.5739 18.4971 21.4053 24.0121 18.6388 27.4751C18.7883 28.3001 19.2228 29.0471 19.8662 29.5881C20.5095 30.1281 21.3222 30.4281 22.1645 30.4361C26.1959 30.4361 29.0158 24.4161 29.0158 18.8481C29.0158 13.2801 26.5938 13.5311 26.8017 11.6511C26.8204 11.4162 26.8848 11.1873 26.9913 10.9776C27.0978 10.7679 27.2443 10.5815 27.4223 10.4291C27.7826 10.1191 28.2517 9.96409 28.7268 9.99609C29.9839 9.99609 31.6368 11.5791 31.6368 18.0031C31.6368 26.1891 27.2629 32.9551 21.4231 32.9551ZM20.5105 12.6951C19.2535 12.6951 18.042 17.3101 17.8886 22.0781C17.8299 23.0977 17.8481 24.1203 17.943 25.1371C19.8386 22.0182 20.9954 18.499 21.3232 14.8541C21.3142 13.2341 21.0163 12.6941 20.5095 12.6941L20.5105 12.6951ZM39.9174 32.7481C39.3903 32.8023 38.8578 32.7406 38.3565 32.5671C37.8572 32.3947 37.4011 32.1141 37.0203 31.7451C36.6419 31.3781 36.3485 30.9311 36.1612 30.4361C35.9742 29.9432 35.8985 29.4143 35.9395 28.8881C35.9395 26.6841 38.8148 15.6991 38.8148 13.8911C38.8148 13.0371 38.6159 12.5331 37.8567 12.5331C37.0096 12.6704 36.2208 13.0548 35.5871 13.6391V12.0831C36.9031 10.877 38.6017 10.1849 40.3777 10.1311C40.9081 10.0834 41.4425 10.1516 41.9445 10.3311C42.4454 10.5111 42.9007 10.7961 43.2798 11.1691C43.6579 11.5411 43.9509 11.9911 44.1369 12.4891C44.322 12.9851 44.3973 13.5161 44.3547 14.0441C44.3547 16.2481 41.4813 27.1881 41.4813 28.9871C41.4813 29.8421 41.6793 30.3461 42.4394 30.3461C43.275 30.2057 44.0583 29.8422 44.708 29.2931V30.7951C43.3971 32.0093 41.6954 32.7031 39.9174 32.7481ZM43.4421 0.999089C43.836 0.987089 44.228 1.05909 44.5913 1.21309C44.9535 1.36709 45.2792 1.59709 45.5424 1.88809C45.8068 2.17687 46.0044 2.52128 46.1211 2.89651C46.2379 3.27175 46.2708 3.66846 46.2175 4.05809C46.1203 4.88999 45.7257 5.6574 45.1079 6.21609C44.4849 6.77989 43.6825 7.09953 42.8462 7.11709C42.4528 7.12968 42.0612 7.0567 41.6981 6.90309C41.3361 6.75031 41.0112 6.52002 40.7459 6.22809C40.4816 5.93931 40.2839 5.5949 40.1672 5.21967C40.0505 4.84443 40.0176 4.44772 40.0709 4.05809C40.1681 3.22621 40.5627 2.45884 41.1804 1.90009C41.8037 1.33673 42.606 1.01646 43.4421 0.999089ZM54.6327 28.0341C54.3803 29.3921 54.5337 30.3371 55.4919 30.3371C56.3305 30.2067 57.1162 29.8419 57.7605 29.2841L57.8505 30.7951C56.5347 32.0015 54.836 32.694 53.0599 32.7481C49.9322 32.7481 48.7217 30.4901 49.1829 27.6831L52.2562 10.2751C53.2777 4.46309 52.9243 3.69809 49.7966 3.69809L49.9955 2.29509L59.4233 1.05309L54.6327 28.0341ZM81.1454 27.9881C80.892 29.3471 80.991 30.3461 82.0035 30.3461C82.844 30.1874 83.6274 29.8053 84.2731 29.2391V30.7951C82.9658 32.0151 81.2618 32.7097 79.4825 32.7481C78.5825 32.814 77.6901 32.5412 76.9773 31.9821C76.2701 31.4285 75.7957 30.6257 75.649 29.7341C74.8903 30.7326 73.9165 31.5434 72.8014 32.1051C71.6806 32.6705 70.4482 32.9733 69.1956 32.9911C63.2024 32.9911 60.6804 27.7281 61.8374 21.4031C62.9945 15.0791 68.3899 9.91509 74.492 9.91509C75.9346 9.88456 77.3615 10.2216 78.6412 10.8951L78.7946 10.0951C79.9883 3.90509 79.437 3.69809 76.3092 3.69809L76.4627 2.29509L85.935 1.05309L81.1444 27.9891L81.1454 27.9881ZM74.6454 12.1821C71.1653 12.1821 68.8521 16.2931 67.9385 21.3581C66.9804 26.6751 67.5862 30.3551 70.8584 30.3551C73.0726 30.3551 75.5946 27.6551 76.3538 23.5351L78.2166 13.1001C77.1395 12.4506 75.8987 12.1317 74.6454 12.1821ZM97.0722 32.9991C90.0664 32.9991 88.1502 27.9791 89.0093 23.1661L91.2957 10.2751C92.3538 4.45509 92.0014 3.65309 88.8737 3.65309L89.0716 2.25009L98.5272 1.05309L96.6109 11.9841C98.0895 10.708 99.9556 9.98112 101.899 9.92409C108 9.92409 110.866 15.0881 109.763 21.4121C108.661 27.7371 103.048 32.9991 97.0722 32.9991ZM100.344 12.3081C99.3282 12.3282 98.3436 12.6687 97.5285 13.2821C96.7194 13.8907 96.1228 14.7434 95.825 15.7171L94.4146 23.8141C93.5554 28.6271 95.2737 30.5881 97.4433 30.5881C100.616 30.5881 102.586 27.0801 103.643 21.3131C104.584 16.1491 103.726 12.3351 100.336 12.3351L100.344 12.3081ZM119.318 24.3271C119.318 28.1871 121.18 30.2471 124.741 30.2471C126.549 30.2471 129.179 28.9971 130.843 27.3411L131.548 28.9421C130.349 30.2051 128.913 31.2141 127.324 31.9101C125.729 32.6089 124.012 32.9821 122.273 33.0081C116.986 33.0081 113.406 29.0951 113.406 23.7781C113.406 15.9061 119.959 9.93309 126.26 9.93309C130.093 9.93309 132.252 12.0381 132.252 14.4941C132.208 18.3081 128.574 22.5911 119.318 24.3271ZM125.817 12.2361C122.942 12.2361 120.177 16.4011 119.417 22.3661C125.211 20.9621 127.679 17.0491 127.733 14.5391C127.724 13.1361 127.064 12.2361 125.808 12.2361H125.817ZM152.817 32.7481C151.917 32.8139 151.025 32.5411 150.312 31.9821C149.605 31.4284 149.131 30.6256 148.985 29.7341C148.254 30.7322 147.303 31.5446 146.208 32.1071C145.107 32.6731 143.892 32.9753 142.657 32.9901C136.764 32.9901 134.242 27.7281 135.426 21.4031C136.61 15.0791 141.916 9.92309 148.036 9.92309C149.333 9.91646 150.618 10.1739 151.814 10.6801H157.562L154.48 27.9881C154.227 29.3471 154.327 30.3461 155.339 30.3461C156.179 30.1872 156.963 29.8051 157.608 29.2391V30.7951C156.301 32.015 154.597 32.7096 152.817 32.7481ZM148.18 12.1821C144.799 12.1821 142.431 16.2931 141.527 21.3581C140.569 26.6751 141.229 30.3551 144.239 30.3551C146.553 30.3551 149.029 27.5481 149.735 23.5351L151.597 13.1001C150.58 12.4506 149.391 12.1303 148.189 12.1821H148.18ZM175.199 15.8431C173.834 15.8431 173.48 14.7911 173.083 13.6841C172.948 13.1245 172.622 12.6306 172.164 12.2881C171.702 11.9427 171.136 11.7686 170.561 11.7951C169.815 11.7552 169.081 11.9952 168.5 12.4691C167.923 12.9382 167.542 13.6099 167.434 14.3501C167.28 15.7091 168.292 16.8601 170.208 18.5151L172.776 20.6201C173.73 21.3379 174.471 22.3064 174.918 23.4201C175.362 24.5301 175.494 25.7401 175.298 26.9181C174.646 30.6781 171.52 32.9901 167.334 32.9901C162.29 32.9901 159.072 30.0301 159.424 28.0241C159.506 27.4971 159.774 27.0141 160.18 26.6661C160.585 26.3161 161.103 26.1221 161.639 26.1171C162.95 26.1171 163.447 27.1161 163.854 28.4201C164.115 29.1701 164.617 29.8121 165.282 30.2481C165.949 30.6844 166.74 30.8891 167.533 30.8311C168.316 30.8686 169.086 30.613 169.694 30.1131C170.298 29.6174 170.694 28.9106 170.805 28.1331C171.004 26.3331 169.901 25.2271 167.832 23.3641L165.31 21.1601C164.423 20.4868 163.73 19.5869 163.302 18.5531C162.877 17.5244 162.733 16.3991 162.887 15.2951C163.339 12.8841 165.599 9.89709 170.796 9.89709C174.827 9.89709 177.349 12.1551 177.124 13.9631C177.098 14.4618 176.886 14.932 176.53 15.2781C176.174 15.6261 175.698 15.8281 175.199 15.8431ZM193.647 12.6951H188.757L186.389 26.0271C185.883 28.7891 186.289 30.0401 187.799 30.0401C188.603 30.0401 189.868 29.5901 191.677 27.7371L191.776 29.6891C190.955 30.6568 189.937 31.4344 188.792 31.9691C187.641 32.5068 186.391 32.7905 185.123 32.8011C181.698 32.8011 179.98 30.3911 180.794 25.9281L183.162 12.6951H179.338L179.637 10.6351H183.496L184.509 4.67009H190.15L189.091 10.6341H193.982L193.647 12.6951Z" fill="#9C9C9C"/>
</svg>
