<svg width="32" height="32" viewBox="0 0 32 32" fill="none" xmlns="http://www.w3.org/2000/svg">
<g clip-path="url(#clip0_12_895)">
<path d="M22.6665 23.6533C20.8665 23.6533 19.7332 24.2133 18.7332 24.72C17.8665 25.16 17.1598 25.52 15.9998 25.52C14.7998 25.52 14.1332 25.1867 13.2665 24.72C12.2665 24.2133 11.1732 23.6533 9.33317 23.6533C7.49317 23.6533 6.39984 24.2133 5.39984 24.72C4.8265 25.0133 4.31984 25.2667 3.7065 25.4133C3.1065 25.5467 2.6665 26.0267 2.6665 26.6267V26.76C2.6665 27.56 3.41317 28.1333 4.1865 27.9733C5.17317 27.7733 5.91984 27.4 6.59984 27.0533C7.4665 26.6133 8.15984 26.2533 9.33317 26.2533C10.5065 26.2533 11.1998 26.5867 12.0665 27.0533C13.0665 27.56 14.1598 28.12 15.9998 28.12C17.8398 28.12 18.9332 27.56 19.9332 27.0533C20.7998 26.6133 21.5065 26.2533 22.6665 26.2533C23.8665 26.2533 24.5332 26.5867 25.3998 27.0533C26.0932 27.4 26.8398 27.7867 27.8398 27.9867C28.02 28.0218 28.2056 28.017 28.3837 27.9725C28.5617 27.9281 28.7279 27.845 28.8703 27.7293C29.0127 27.6136 29.128 27.4679 29.208 27.3028C29.288 27.1376 29.3307 26.9569 29.3332 26.7733V26.6533C29.3332 26.04 28.8798 25.56 28.2798 25.4267C27.6665 25.2933 27.1732 25.04 26.5998 24.7333C25.5998 24.2133 24.4665 23.6533 22.6665 23.6533ZM22.6665 17.72C20.8665 17.72 19.7332 18.2933 18.7332 18.7867C17.8665 19.2133 17.1598 19.5867 15.9998 19.5867C14.7998 19.5867 14.1332 19.2533 13.2665 18.7867C12.2665 18.28 11.1732 17.72 9.33317 17.72C7.49317 17.72 6.39984 18.2933 5.39984 18.7867C4.8265 19.0667 4.31984 19.3333 3.69317 19.48C3.1065 19.6133 2.6665 20.0933 2.6665 20.6933V20.8267C2.66658 21.011 2.70773 21.1929 2.78697 21.3593C2.86621 21.5257 2.98154 21.6723 3.12457 21.7885C3.2676 21.9048 3.43474 21.9876 3.61382 22.0311C3.7929 22.0746 3.97943 22.0777 4.15984 22.04C5.15984 21.84 5.9065 21.4533 6.59984 21.12C7.4665 20.6533 8.13317 20.32 9.33317 20.32C10.5332 20.32 11.1998 20.6533 12.0665 21.12C13.0665 21.6267 14.1598 22.1867 15.9998 22.1867C17.8398 22.1867 18.9332 21.6133 19.9332 21.12C20.7998 20.6533 21.4665 20.32 22.6665 20.32C23.8665 20.32 24.5332 20.6533 25.3998 21.12C26.0932 21.4667 26.8398 21.8533 27.8398 22.0533C28.0211 22.0887 28.2079 22.0836 28.3869 22.0383C28.5659 21.9931 28.7327 21.9089 28.8754 21.7917C29.0181 21.6745 29.1331 21.5272 29.2122 21.3604C29.2914 21.1936 29.3327 21.0113 29.3332 20.8267V20.7067C29.3332 20.0933 28.8798 19.6133 28.2798 19.48C27.6665 19.3467 27.1732 19.0933 26.5998 18.7867C25.5998 18.28 24.4665 17.72 22.6665 17.72ZM26.5998 6.94667C25.5998 6.44 24.4932 5.88 22.6665 5.88C20.8398 5.88 19.7332 6.44 18.7332 6.94667C17.8665 7.37334 17.1598 7.74667 15.9998 7.74667C14.7998 7.74667 14.1332 7.41334 13.2665 6.94667C12.2665 6.45334 11.1732 5.88 9.33317 5.88C7.49317 5.88 6.39984 6.44 5.39984 6.94667C4.8265 7.24 4.31984 7.49334 3.7065 7.64C3.1065 7.77334 2.6665 8.25334 2.6665 8.85334V8.94667C2.6665 9.74667 3.3865 10.3333 4.15984 10.1733C5.15984 9.97334 5.9065 9.58667 6.59984 9.25334C7.4665 8.81334 8.15984 8.45334 9.33317 8.45334C10.5065 8.45334 11.1998 8.78667 12.0665 9.25334C13.0665 9.76 14.1598 10.32 15.9998 10.32C17.8398 10.32 18.9332 9.74667 19.9332 9.25334C20.7998 8.82667 21.5065 8.45334 22.6665 8.45334C23.8665 8.45334 24.5332 8.78667 25.3998 9.25334C26.0932 9.6 26.8398 9.98667 27.8398 10.1867C28.0211 10.222 28.2079 10.2169 28.3869 10.1717C28.5659 10.1264 28.7327 10.0422 28.8754 9.92502C29.0181 9.80782 29.1331 9.66054 29.2122 9.49372C29.2914 9.32689 29.3327 9.14465 29.3332 8.96V8.84C29.3332 8.22667 28.8798 7.74667 28.2798 7.61334C27.6665 7.48 27.1732 7.24 26.5998 6.94667ZM22.6665 11.7867C20.8665 11.7867 19.7332 12.36 18.7332 12.8533C17.8665 13.32 17.1998 13.6533 15.9998 13.6533C14.7998 13.6533 14.1332 13.32 13.2665 12.8533C12.2665 12.3467 11.1732 11.7867 9.33317 11.7867C7.49317 11.7867 6.39984 12.36 5.39984 12.8533C4.8265 13.16 4.33317 13.4133 3.71984 13.5467C3.11984 13.68 2.6665 14.16 2.6665 14.7733V14.8933C2.66658 15.0776 2.70773 15.2596 2.78697 15.426C2.86621 15.5924 2.98154 15.739 3.12457 15.8552C3.2676 15.9714 3.43474 16.0543 3.61382 16.0978C3.7929 16.1413 3.97943 16.1443 4.15984 16.1067C5.15984 15.9067 5.9065 15.52 6.59984 15.1867C7.4665 14.76 8.17317 14.3867 9.33317 14.3867C10.4932 14.3867 11.1998 14.72 12.0665 15.1867C13.0665 15.6933 14.1598 16.2533 15.9998 16.2533C17.8398 16.2533 18.9332 15.68 19.9332 15.1867C20.7998 14.76 21.5065 14.3867 22.6665 14.3867C23.8665 14.3867 24.5332 14.72 25.3998 15.1867C26.0932 15.5333 26.8398 15.92 27.8398 16.12C28.02 16.1552 28.2056 16.1503 28.3837 16.1059C28.5617 16.0614 28.7279 15.9783 28.8703 15.8626C29.0127 15.7469 29.128 15.6013 29.208 15.4361C29.288 15.2709 29.3307 15.0902 29.3332 14.9067V14.7867C29.3332 14.1733 28.8798 13.6933 28.2798 13.56C27.6665 13.4267 27.1732 13.1733 26.5998 12.8667C25.5998 12.3467 24.4665 11.7867 22.6665 11.7867Z" fill="url(#paint0_linear_12_895)"/>
</g>
<defs>
<linearGradient id="paint0_linear_12_895" x1="15.9998" y1="5.88" x2="15.9998" y2="28.12" gradientUnits="userSpaceOnUse">
<stop stop-color="#FFBF00"/>
<stop offset="1" stop-color="#F2B50C"/>
</linearGradient>
<clipPath id="clip0_12_895">
<rect width="32" height="32" fill="white"/>
</clipPath>
</defs>
</svg>
