<svg width="32" height="32" viewBox="0 0 32 32" fill="none" xmlns="http://www.w3.org/2000/svg">
<g clip-path="url(#clip0_12_905)">
<path d="M16.0002 11.6667C13.0535 11.6667 10.6668 14.0534 10.6668 17C10.6668 19.9467 13.0535 22.3334 16.0002 22.3334C18.9468 22.3334 21.3335 19.9467 21.3335 17C21.3335 14.0534 18.9468 11.6667 16.0002 11.6667ZM27.9202 15.6667C27.6181 12.9629 26.4057 10.4421 24.4819 8.5183C22.5581 6.59451 20.0373 5.38206 17.3335 5.08004V3.66671C17.3335 2.93337 16.7335 2.33337 16.0002 2.33337C15.2668 2.33337 14.6668 2.93337 14.6668 3.66671V5.08004C11.963 5.38206 9.44221 6.59451 7.51842 8.5183C5.59463 10.4421 4.38218 12.9629 4.08016 15.6667H2.66683C1.9335 15.6667 1.3335 16.2667 1.3335 17C1.3335 17.7334 1.9335 18.3334 2.66683 18.3334H4.08016C4.38218 21.0372 5.59463 23.558 7.51842 25.4818C9.44221 27.4056 11.963 28.618 14.6668 28.92V30.3334C14.6668 31.0667 15.2668 31.6667 16.0002 31.6667C16.7335 31.6667 17.3335 31.0667 17.3335 30.3334V28.92C20.0373 28.618 22.5581 27.4056 24.4819 25.4818C26.4057 23.558 27.6181 21.0372 27.9202 18.3334H29.3335C30.0668 18.3334 30.6668 17.7334 30.6668 17C30.6668 16.2667 30.0668 15.6667 29.3335 15.6667H27.9202ZM16.0002 26.3334C10.8402 26.3334 6.66683 22.16 6.66683 17C6.66683 11.84 10.8402 7.66671 16.0002 7.66671C21.1602 7.66671 25.3335 11.84 25.3335 17C25.3335 22.16 21.1602 26.3334 16.0002 26.3334Z" fill="url(#paint0_linear_12_905)"/>
</g>
<defs>
<linearGradient id="paint0_linear_12_905" x1="16.0002" y1="2.33337" x2="16.0002" y2="31.6667" gradientUnits="userSpaceOnUse">
<stop stop-color="#FFBF00"/>
<stop offset="1" stop-color="#F2B50C"/>
</linearGradient>
<clipPath id="clip0_12_905">
<rect width="32" height="32" fill="white"/>
</clipPath>
</defs>
</svg>
