<svg width="32" height="32" viewBox="0 0 32 32" fill="none" xmlns="http://www.w3.org/2000/svg">
<g clip-path="url(#clip0_12_900)">
<path d="M8.06652 9.73333C6.32089 11.4792 5.33802 13.8456 5.33303 16.3145C5.32803 18.7834 6.30131 21.1537 8.03985 22.9067C9.99985 18.3733 13.4932 14.5867 17.8532 12.3333C14.0899 15.5176 11.5496 19.9101 10.6665 24.76C14.1332 26.4 18.3999 25.8 21.2665 22.9333C25.2532 18.9467 26.3732 8.08 26.6132 5.09333C26.6215 4.99843 26.609 4.90286 26.5764 4.81332C26.5439 4.72379 26.4921 4.64249 26.4247 4.57512C26.3574 4.50776 26.2761 4.45597 26.1865 4.42342C26.097 4.39086 26.0014 4.37831 25.9065 4.38667C22.9199 4.62667 12.0532 5.74667 8.06652 9.73333Z" fill="url(#paint0_linear_12_900)"/>
</g>
<defs>
<linearGradient id="paint0_linear_12_900" x1="15.9744" y1="4.38416" x2="15.9744" y2="25.6592" gradientUnits="userSpaceOnUse">
<stop stop-color="#FFBF00"/>
<stop offset="1" stop-color="#F2B50C"/>
</linearGradient>
<clipPath id="clip0_12_900">
<rect width="32" height="32" fill="white"/>
</clipPath>
</defs>
</svg>
