<svg width="32" height="32" viewBox="0 0 32 32" fill="none" xmlns="http://www.w3.org/2000/svg">
<g clip-path="url(#clip0_12_916)">
<g clip-path="url(#clip1_12_916)">
<path d="M25.9468 12.3333C25.8152 12.5277 25.7373 12.7533 25.7209 12.9875C25.7046 13.2216 25.7503 13.4559 25.8534 13.6667C26.1841 14.4387 26.4174 15.2493 26.5468 16.08C26.89 18.2269 26.569 20.4273 25.6268 22.3867C25.5123 22.6016 25.3412 22.7811 25.132 22.9056C24.9229 23.0302 24.6836 23.0951 24.4401 23.0933H7.57342C7.32858 23.0938 7.08833 23.0269 6.87901 22.8999C6.66969 22.7729 6.49938 22.5907 6.38675 22.3733C5.53326 20.6419 5.16561 18.7113 5.323 16.7874C5.48039 14.8635 6.15691 13.0183 7.28046 11.4487C8.40401 9.87899 9.93245 8.64362 11.7029 7.87426C13.4733 7.1049 15.4193 6.8304 17.3334 7.08C18.3019 7.19384 19.2493 7.44526 20.1467 7.82667C20.3575 7.92983 20.5918 7.97553 20.826 7.95914C21.0601 7.94275 21.2857 7.86486 21.4801 7.73334C21.6826 7.59993 21.8449 7.41382 21.9495 7.19504C22.0541 6.97626 22.097 6.73309 22.0737 6.49172C22.0504 6.25034 21.9617 6.01989 21.8172 5.82518C21.6726 5.63046 21.4777 5.47886 21.2534 5.38667C18.6777 4.28221 15.8194 4.01745 13.0846 4.63C10.3498 5.24255 7.87761 6.70126 6.01909 8.79891C4.16058 10.8966 3.01029 13.5265 2.73162 16.3152C2.45295 19.1038 3.06008 21.9094 4.46675 24.3333C4.69943 24.7364 5.03354 25.0715 5.43586 25.3054C5.83818 25.5393 6.29472 25.6639 6.76009 25.6667H25.2268C25.6966 25.6685 26.1587 25.5462 26.5661 25.3121C26.9735 25.0779 27.3118 24.7403 27.5468 24.3333C28.5766 22.5486 29.1788 20.5494 29.306 18.4928C29.4332 16.4362 29.0821 14.3781 28.2801 12.48C28.1785 12.2637 28.0207 12.0786 27.823 11.9442C27.6254 11.8098 27.3953 11.731 27.1568 11.716C26.9183 11.701 26.6802 11.7504 26.4673 11.859C26.2544 11.9676 26.0746 12.1314 25.9468 12.3333Z" fill="url(#paint0_linear_12_916)"/>
<path d="M14.1199 15.7867C13.6195 16.287 13.3384 16.9657 13.3384 17.6733C13.3384 18.0237 13.4074 18.3707 13.5415 18.6944C13.6756 19.0181 13.8721 19.3122 14.1199 19.56C14.3676 19.8077 14.6618 20.0043 14.9855 20.1384C15.3092 20.2725 15.6561 20.3415 16.0065 20.3415C16.7142 20.3415 17.3928 20.0604 17.8932 19.56L25.4399 8.23999L14.1199 15.7867Z" fill="url(#paint1_linear_12_916)"/>
</g>
</g>
<defs>
<linearGradient id="paint0_linear_12_916" x1="15.9985" y1="4.30762" x2="15.9985" y2="25.6667" gradientUnits="userSpaceOnUse">
<stop stop-color="#FFBF00"/>
<stop offset="1" stop-color="#F2B50C"/>
</linearGradient>
<linearGradient id="paint1_linear_12_916" x1="19.3891" y1="8.23999" x2="19.3891" y2="20.3415" gradientUnits="userSpaceOnUse">
<stop stop-color="#FFBF00"/>
<stop offset="1" stop-color="#F2B50C"/>
</linearGradient>
<clipPath id="clip0_12_916">
<rect width="32" height="32" fill="white"/>
</clipPath>
<clipPath id="clip1_12_916">
<rect width="32" height="32" fill="white" transform="translate(0 -1)"/>
</clipPath>
</defs>
</svg>
