<svg width="18" height="18" viewBox="0 0 18 18" fill="none" xmlns="http://www.w3.org/2000/svg">
<path d="M14.2503 5.25037C14.2503 4.42575 13.5753 3.75075 12.7506 3.75075H11.251C10.8381 3.75075 10.5006 4.08825 10.5006 4.5C10.5006 4.91287 10.8381 5.25037 11.251 5.25037H12.7506V7.23825L10.1406 10.5007H7.50026V7.50037C7.50026 7.0875 7.16276 6.75 6.75101 6.75H4.49989C4.10583 6.74985 3.71561 6.82736 3.35152 6.97809C2.98743 7.12882 2.65661 7.34982 2.37797 7.62846C2.09933 7.9071 1.87833 8.23792 1.7276 8.602C1.57687 8.96609 1.49936 9.35632 1.49951 9.75037V11.25C1.49951 11.6629 1.83701 12.0004 2.24989 12.0004H2.99914C2.99914 13.2457 4.00489 14.2504 5.24914 14.2504C6.49451 14.2504 7.49914 13.2457 7.49914 12.0004H10.1395C10.5974 12.0004 11.0249 11.79 11.3095 11.4379L13.9195 8.17537C14.1366 7.90537 14.2491 7.57462 14.2491 7.23825L14.2503 5.25037ZM5.25026 12.7507C5.05163 12.7499 4.8614 12.6705 4.72105 12.5299C4.5807 12.3894 4.5016 12.199 4.50101 12.0004H6.00064C6.00064 12.4132 5.66314 12.7507 5.25026 12.7507Z" fill="#9C9C9C"/>
<path d="M4.49989 4.5H6.74989C7.16276 4.5 7.50026 4.8375 7.50026 5.25037C7.50026 5.66212 7.16276 5.99963 6.75101 5.99963H4.49989C4.30125 5.99903 4.1109 5.91994 3.97034 5.77959C3.82978 5.63924 3.7504 5.44901 3.74951 5.25037C3.74951 4.8375 4.08701 4.5 4.49989 4.5ZM14.2514 9.74925C13.006 9.74925 12.0014 10.755 12.0014 11.9993C12.0014 13.2446 13.006 14.2493 14.2514 14.2493C15.4968 14.2493 16.5014 13.2446 16.5014 11.9993C16.5014 10.755 15.4968 9.74925 14.2514 9.74925ZM14.2514 12.7496C14.0526 12.749 13.862 12.6698 13.7214 12.5292C13.5809 12.3886 13.5016 12.1981 13.501 11.9993C13.501 11.5875 13.8385 11.25 14.2514 11.25C14.6643 11.25 15.0018 11.5875 15.0018 11.9993C15.0018 12.4121 14.6643 12.7496 14.2514 12.7496Z" fill="#9C9C9C"/>
</svg>
