<svg width="18" height="18" viewBox="0 0 18 18" fill="none" xmlns="http://www.w3.org/2000/svg">
<g clip-path="url(#clip0_12_577)">
<path d="M1.4994 4.50001C1.91115 4.50001 2.24865 4.16251 2.24865 3.75076V3.00038C2.24977 2.58751 2.58727 2.25001 2.99902 2.25001H3.7494C4.16115 2.25001 4.49865 1.91251 4.49865 1.50076C4.49865 1.08788 4.16115 0.750381 3.7494 0.750381H2.99902C1.75365 0.750381 0.749023 1.75501 0.749023 3.00038V3.75076C0.749023 4.16251 1.08652 4.50001 1.4994 4.50001ZM3.7494 15.75H2.99902C2.80039 15.7494 2.61004 15.6703 2.46948 15.53C2.32892 15.3896 2.24954 15.1994 2.24865 15.0008V14.2504C2.24865 13.8375 1.91115 13.5011 1.4994 13.5011C1.08652 13.5011 0.749023 13.8386 0.749023 14.2504V15.0008C0.749023 16.2461 1.75365 17.2508 2.99902 17.2508H3.7494C4.16115 17.2508 4.49865 16.9133 4.49865 16.5004C4.49865 16.0875 4.16115 15.7511 3.7494 15.7511V15.75ZM14.9994 0.750381H14.2501C13.8373 0.750381 13.4998 1.08788 13.4998 1.50076C13.4998 1.91251 13.8373 2.25001 14.2501 2.25001H14.9994C15.4123 2.25001 15.7498 2.58751 15.7498 3.00038V3.75076C15.7498 4.16251 16.0873 4.50001 16.5001 4.50001C16.9119 4.50001 17.2494 4.16251 17.2494 3.75076V3.00038C17.2494 1.75501 16.2448 0.750381 14.9994 0.750381ZM16.5001 13.5C16.0873 13.5 15.7498 13.8375 15.7498 14.2504V15.0008C15.7498 15.4136 15.4123 15.7511 14.9994 15.7511H14.2501C13.8373 15.7511 13.4998 16.0886 13.4998 16.5004C13.4998 16.9133 13.8373 17.2508 14.2501 17.2508H14.9994C16.2448 17.2508 17.2494 16.2461 17.2494 15.0008V14.2504C17.2494 13.8375 16.9119 13.5011 16.5001 13.5011V13.5ZM14.2479 11.1533V6.84788C14.2479 6.30788 13.9633 5.81288 13.4986 5.55076L9.7479 3.39076C9.52054 3.25735 9.2617 3.18702 8.99809 3.18702C8.73447 3.18702 8.47564 3.25735 8.24827 3.39076L4.49865 5.54176C4.0329 5.81176 3.74827 6.30676 3.74827 6.84676V11.1521C3.74827 11.6921 4.0329 12.1871 4.49865 12.4493L8.24827 14.6093C8.47564 14.7427 8.73447 14.813 8.99809 14.813C9.2617 14.813 9.52054 14.7427 9.7479 14.6093L13.4998 12.4504C13.7284 12.32 13.9183 12.1311 14.0499 11.9032C14.1816 11.6753 14.2503 11.4165 14.249 11.1533H14.2479ZM8.24827 12.8779L5.2479 11.1533V7.68038L8.24827 9.42751V12.8779ZM8.99865 8.13038L6.02865 6.39788L8.99865 4.68788L11.9686 6.39788L8.99865 8.13038ZM12.7483 11.1533L9.7479 12.8779V9.42751L12.7483 7.68038V11.1533Z" fill="#9C9C9C"/>
</g>
<defs>
<clipPath id="clip0_12_577">
<rect width="18" height="18" fill="white"/>
</clipPath>
</defs>
</svg>
