<svg width="20" height="20" viewBox="0 0 20 20" fill="none" xmlns="http://www.w3.org/2000/svg">
<path d="M10 2C5.60014 2 2 5.60014 2 10C2 14.3999 5.60014 18 10 18C14.3999 18 18 14.3999 18 10C18 5.60014 14.3999 2 10 2ZM12.8398 13.0404L9.57566 11.032C9.45814 10.9618 9.36093 10.8623 9.29359 10.7431C9.22626 10.6239 9.19112 10.4892 9.19165 10.3523V6.59954C9.19586 6.44024 9.2616 6.28877 9.37508 6.17689C9.48857 6.06502 9.64097 6.00145 9.80031 5.99952C9.95906 6.00078 10.111 6.06439 10.2232 6.17665C10.3355 6.28891 10.3991 6.4408 10.4003 6.59954V10.1594L13.4725 12.0074C13.7605 12.1841 13.8565 12.5595 13.6798 12.8484C13.593 12.9842 13.4563 13.0805 13.2991 13.1164C13.142 13.1523 12.977 13.125 12.8398 13.0404Z" fill="#FFBB00"/>
</svg>
