<svg width="32" height="32" viewBox="0 0 32 32" fill="none" xmlns="http://www.w3.org/2000/svg">
<g clip-path="url(#clip0_12_910)">
<g clip-path="url(#clip1_12_910)">
<path d="M24.0002 11.6667H22.6668V9.00004C22.6668 5.32004 19.6802 2.33337 16.0002 2.33337C12.3202 2.33337 9.3335 5.32004 9.3335 9.00004V11.6667H8.00016C6.5335 11.6667 5.3335 12.8667 5.3335 14.3334V27.6667C5.3335 29.1334 6.5335 30.3334 8.00016 30.3334H24.0002C25.4668 30.3334 26.6668 29.1334 26.6668 27.6667V14.3334C26.6668 12.8667 25.4668 11.6667 24.0002 11.6667ZM16.0002 23.6667C14.5335 23.6667 13.3335 22.4667 13.3335 21C13.3335 19.5334 14.5335 18.3334 16.0002 18.3334C17.4668 18.3334 18.6668 19.5334 18.6668 21C18.6668 22.4667 17.4668 23.6667 16.0002 23.6667ZM12.0002 11.6667V9.00004C12.0002 6.78671 13.7868 5.00004 16.0002 5.00004C18.2135 5.00004 20.0002 6.78671 20.0002 9.00004V11.6667H12.0002Z" fill="url(#paint0_linear_12_910)"/>
</g>
</g>
<defs>
<linearGradient id="paint0_linear_12_910" x1="16.0002" y1="2.33337" x2="16.0002" y2="30.3334" gradientUnits="userSpaceOnUse">
<stop stop-color="#FFBF00"/>
<stop offset="1" stop-color="#F2B50C"/>
</linearGradient>
<clipPath id="clip0_12_910">
<rect width="32" height="32" fill="white"/>
</clipPath>
<clipPath id="clip1_12_910">
<rect width="32" height="32" fill="white" transform="translate(0 1)"/>
</clipPath>
</defs>
</svg>
